<svg width="600" height="440" viewBox="0 0 600 440" fill="none" xmlns="http://www.w3.org/2000/svg">
<g clip-path="url(#clip0_418_1625)">
<path d="M334.903 433.034C454.14 433.034 550.8 336.096 550.8 216.517C550.8 96.9379 454.14 0 334.903 0C215.667 0 119.007 96.9379 119.007 216.517C119.007 336.096 215.667 433.034 334.903 433.034Z" fill="#F2F2F2"/>
<path d="M400.889 135.251C431.897 135.251 457.033 110.042 457.033 78.9452C457.033 47.8483 431.897 22.6392 400.889 22.6392C369.881 22.6392 344.744 47.8483 344.744 78.9452C344.744 110.042 369.881 135.251 400.889 135.251Z" fill="#FF6584"/>
<path d="M165.519 42.0748L167.054 74.1614C173.415 82.6706 180.278 92.408 187.052 103.02L188.019 54.069L188.552 54.411C180.717 48.798 172.753 44.5035 164.985 41.7774L165.519 42.0748Z" fill="#31A05E"/>
<path d="M165.935 72.6706L164.449 41.5893C155.725 38.6057 147.261 37.6159 139.524 38.9996C139.122 39.0716 138.726 39.1545 138.331 39.2385C140.297 41.3536 151.753 53.8451 165.935 72.6706Z" fill="#31A05E"/>
<path d="M236.372 110.951L236.887 111.444C234.773 107.456 232.532 103.579 230.164 99.8122L215.737 156.741L215.493 156.525C216.536 159.022 217.528 161.503 218.469 163.966L236.372 110.951Z" fill="#31A05E"/>
<path d="M214.395 78.5863L214.927 79.0127C207.299 69.9495 198.628 61.8242 189.095 54.8066L188.109 104.691C194.412 114.666 200.056 124.492 205.039 134.168L214.395 78.5863Z" fill="#31A05E"/>
<path d="M109.744 94.1603C110.555 102.568 112.21 110.873 114.685 118.947L200.715 127.846C196.224 119.54 191.588 111.748 187.087 104.646L109.963 94.8386L109.744 94.1603Z" fill="#31A05E"/>
<path d="M117.814 128.258L117.583 127.581L204.653 135.343C203.601 133.279 202.537 131.243 201.462 129.234L115.115 120.303L114.888 119.625C115.758 122.471 116.734 125.348 117.814 128.258Z" fill="#31A05E"/>
<path d="M229.184 98.6252L229.707 99.0881C225.39 92.2793 220.62 85.7703 215.43 79.6056L205.947 135.939C209.234 142.41 212.21 148.79 214.877 155.079L229.184 98.6252Z" fill="#31A05E"/>
<path d="M227.342 192.728C230.802 207.745 232.113 221.944 231.248 235.168C236.117 224.764 254.634 181.662 247.712 141.492L227.342 192.728Z" fill="#31A05E"/>
<path d="M133.787 158.618C138.394 164.842 143.412 170.749 148.807 176.3L148.597 175.548L226.048 191.527C224.033 183.142 221.518 174.885 218.518 166.801L133.787 158.618Z" fill="#31A05E"/>
<path d="M165.267 73.1948C149.918 52.8308 137.807 39.9599 137.633 39.7756L137.832 39.3466C126.184 41.9985 117.961 49.9461 113.436 61.4496L165.267 73.1948Z" fill="#31A05E"/>
<path d="M219.186 165.877C219.472 166.643 219.762 167.411 220.039 168.173C222.699 175.481 224.96 182.929 226.812 190.484L246.989 139.733L247.482 140.229C246.205 133.167 244.04 126.296 241.04 119.779C239.85 117.224 238.604 114.708 237.303 112.23L219.186 165.877Z" fill="#31A05E"/>
<path d="M186.186 103.231C179.482 92.7437 172.697 83.1234 166.408 74.7143L113.387 62.6992L113.207 62.0281C109.897 70.7698 108.687 81.5089 109.69 93.5034L186.186 103.231Z" fill="#31A05E"/>
<path d="M226.362 192.86L149.478 176.997C181.817 210.29 227.061 235.823 229.949 237.437C231.296 222.769 229.768 207.702 226.362 192.86Z" fill="#31A05E"/>
<path d="M217.973 165.434L217.99 165.384C214.293 155.609 210.074 146.042 205.351 136.723L118.067 128.942C119.549 132.878 121.224 136.855 123.092 140.875C125.812 146.602 129.048 152.068 132.758 157.205L217.973 165.434Z" fill="#31A05E"/>
<path d="M329.003 150.151L309.778 175.846C309.266 186.469 308.359 198.358 306.826 210.864L338.703 173.781L338.897 174.386C336.432 165.051 333.029 156.649 328.781 149.581L329.003 150.151Z" fill="#31A05E"/>
<path d="M309.864 173.982L328.487 149.093C323.666 141.215 317.776 135.039 310.937 131.155C310.581 130.953 310.224 130.764 309.866 130.576C310.035 133.463 310.914 150.411 309.864 173.982Z" fill="#31A05E"/>
<path d="M339.769 248.52L339.852 249.229C340.76 244.806 341.499 240.386 342.071 235.97L294.754 270.588L294.703 270.266C293.918 272.856 293.105 275.401 292.263 277.9L339.769 248.52Z" fill="#31A05E"/>
<path d="M343.426 209.536L343.563 210.204C343.453 198.345 341.943 186.54 339.063 175.038L306.578 212.827C305.089 224.542 303.186 235.72 300.87 246.36L343.426 209.536Z" fill="#31A05E"/>
<path d="M252.919 154.591C248.196 161.585 244.19 169.04 240.961 176.842L301.56 238.724C303.384 229.455 304.769 220.488 305.819 212.139L252.656 155.253L252.919 154.591Z" fill="#31A05E"/>
<path d="M237.45 186.015L237.702 185.345L299.826 247.017C300.329 244.755 300.804 242.507 301.254 240.272L240.43 178.161L240.687 177.494C239.547 180.242 238.468 183.083 237.45 186.015Z" fill="#31A05E"/>
<path d="M342.071 234.429L342.18 235.12C343.186 227.115 343.651 219.051 343.574 210.982L300.443 248.305C298.859 255.391 297.094 262.209 295.148 268.758L342.071 234.429Z" fill="#31A05E"/>
<path d="M280.804 305.728C273.919 319.508 265.898 331.282 256.821 340.914C267.188 336.015 308.862 314.662 329.079 279.296L280.804 305.728Z" fill="#31A05E"/>
<path d="M230.443 219.615C230.033 227.356 230.141 235.115 230.765 242.841L231.082 242.127L280.571 303.975C284.353 296.228 287.667 288.26 290.497 280.115L230.443 219.615Z" fill="#31A05E"/>
<path d="M309.017 173.958C310.146 148.456 309.004 130.796 308.987 130.543L309.414 130.34C298.756 124.932 287.368 125.793 276.566 131.758L309.017 173.958Z" fill="#31A05E"/>
<path d="M291.6 279.83C291.333 280.603 291.069 281.381 290.796 282.145C288.197 289.475 285.202 296.657 281.824 303.661L329.641 277.479L329.705 278.176C333.213 271.92 335.916 265.244 337.75 258.306C338.458 255.577 339.099 252.842 339.672 250.101L291.6 279.83Z" fill="#31A05E"/>
<path d="M306.025 210.472C307.531 198.107 308.424 186.358 308.928 175.858L275.734 132.69L276.022 132.058C267.913 136.674 260.151 144.171 253.295 154.05L306.025 210.472Z" fill="#31A05E"/>
<path d="M279.965 305.203L230.838 243.807C234.571 290.134 253.179 338.74 254.377 341.83C264.744 331.395 273.149 318.813 279.965 305.203Z" fill="#31A05E"/>
<path d="M290.946 278.714L290.992 278.686C294.361 268.793 297.196 258.726 299.486 248.527L237.209 186.704C235.847 190.682 234.608 194.817 233.49 199.108C231.943 205.259 230.958 211.538 230.549 217.868L290.946 278.714Z" fill="#31A05E"/>
<path d="M137.316 184.456L148.665 214.496C157.338 220.616 166.866 227.749 176.578 235.742L162.411 188.888L163.023 189.048C153.842 186.139 144.944 184.523 136.717 184.339L137.316 184.456Z" fill="#31A05E"/>
<path d="M147.142 213.425L136.149 184.326C126.933 184.193 118.578 185.875 111.647 189.589C111.286 189.783 110.936 189.984 110.586 190.187C113.108 191.589 127.853 199.917 147.142 213.425Z" fill="#31A05E"/>
<path d="M225.928 227.996L226.57 228.305C223.33 225.168 220.004 222.175 216.591 219.327L220.417 277.94L220.118 277.81C221.88 279.862 223.587 281.913 225.241 283.965L225.928 227.996Z" fill="#31A05E"/>
<path d="M195.052 204.029L195.689 204.27C185.642 198.015 174.891 192.975 163.662 189.256L178.099 237.003C187.168 244.536 195.564 252.132 203.285 259.789L195.052 204.029Z" fill="#31A05E"/>
<path d="M100.326 251.28C103.688 259.025 107.822 266.41 112.665 273.322L197.225 255.117C190.393 248.61 183.583 242.636 177.113 237.277L100.743 251.858L100.326 251.28Z" fill="#31A05E"/>
<path d="M118.511 281.206L118.082 280.634L203.28 261.026C201.644 259.389 200.005 257.783 198.363 256.206L113.491 274.477L113.066 273.903C114.771 276.34 116.586 278.774 118.511 281.206Z" fill="#31A05E"/>
<path d="M215.293 218.502L215.934 218.78C209.73 213.643 203.187 208.931 196.351 204.677L204.695 261.192C209.815 266.327 214.612 271.472 219.087 276.626L215.293 218.502Z" fill="#31A05E"/>
<path d="M242.545 308.568C250.464 321.777 256.088 334.874 259.34 347.719C260.764 336.315 265.09 289.583 246.126 253.526L242.545 308.568Z" fill="#31A05E"/>
<path d="M143.059 305.129C149.358 309.62 155.951 313.682 162.792 317.289L162.361 316.638L240.944 307.827C236.443 300.476 231.507 293.403 226.162 286.646L143.059 305.129Z" fill="#31A05E"/>
<path d="M146.668 214.13C125.794 199.522 110.309 191.035 110.087 190.914L110.144 190.444C99.8844 196.577 94.5128 206.684 93.7549 219.027L146.668 214.13Z" fill="#31A05E"/>
<path d="M226.513 285.56C227.021 286.2 227.534 286.84 228.032 287.479C232.814 293.605 237.26 299.987 241.35 306.597L244.897 252.077L245.519 252.396C242.127 246.076 237.951 240.212 233.09 234.945C231.17 232.884 229.21 230.877 227.208 228.924L226.513 285.56Z" fill="#31A05E"/>
<path d="M175.82 236.211C166.212 228.316 156.794 221.27 148.222 215.222L94.0941 220.231L93.7164 219.648C93.2628 228.988 95.4217 239.576 100.072 250.673L175.82 236.211Z" fill="#31A05E"/>
<path d="M241.654 308.997L163.646 317.744C204.662 339.382 255.561 349.64 258.805 350.279C255.565 335.912 249.468 322.056 241.654 308.997Z" fill="#31A05E"/>
<path d="M225.222 285.515L225.223 285.461C218.695 277.311 211.734 269.52 204.37 262.122L118.962 281.779C121.584 285.062 124.403 288.326 127.418 291.57C131.77 296.173 136.532 300.368 141.644 304.104L225.222 285.515Z" fill="#31A05E"/>
<path d="M600 368.021C600 393.989 466.801 440 302.491 440C138.182 440 4.98242 393.989 4.98242 368.021C4.98242 342.054 138.182 345.963 302.491 345.963C466.801 345.963 600 342.054 600 368.021Z" fill="#3F3D56"/>
<path opacity="0.1" d="M600 368.021C600 393.989 466.801 440 302.491 440C138.182 440 4.98242 393.989 4.98242 368.021C4.98242 342.054 138.182 345.963 302.491 345.963C466.801 345.963 600 342.054 600 368.021Z" fill="black"/>
<path d="M302.491 415.04C466.801 415.04 600 393.989 600 368.021C600 342.054 466.801 321.003 302.491 321.003C138.182 321.003 4.98242 342.054 4.98242 368.021C4.98242 393.989 138.182 415.04 302.491 415.04Z" fill="#3F3D56"/>
<path opacity="0.1" d="M354.071 318.877C354.071 347.168 314.75 338.417 266.605 338.417C218.461 338.417 179.724 347.168 179.724 318.877C179.724 290.586 219.039 284.433 267.184 284.433C315.329 284.433 354.071 290.586 354.071 318.877Z" fill="black"/>
<path d="M354.071 311.911C354.071 340.202 314.75 331.451 266.605 331.451C218.461 331.451 179.724 340.202 179.724 311.911C179.724 283.62 219.039 277.467 267.184 277.467C315.329 277.467 354.071 283.62 354.071 311.911Z" fill="#3F3D56"/>
<path d="M199.191 234.066C200.25 233.31 201.418 232.723 202.656 232.323C210.501 229.396 218.722 227.601 227.071 226.993C234.331 226.477 242.199 227.09 247.87 231.666C248.751 232.315 249.473 233.158 249.979 234.131C250.693 235.675 250.476 237.469 250.245 239.155C250.194 239.809 250.029 240.449 249.76 241.046C248.997 242.503 247.118 243.014 245.486 242.839C243.855 242.664 242.323 241.972 240.714 241.651C239.718 241.477 238.711 241.374 237.7 241.343L227.606 240.795C221.329 240.454 214.969 240.119 208.812 241.39C206.916 241.731 205.085 242.364 203.382 243.266C201.975 244.058 201.028 245.194 199.724 243.732C197.431 241.162 196.162 236.44 199.191 234.066Z" fill="#2F2E41"/>
<path d="M214.832 238.543C214.832 238.543 228.41 232.439 233.56 239.482C238.71 246.525 230.751 243.708 230.751 243.708L221.855 246.525L212.023 244.647L214.832 238.543Z" fill="#F2F2F2"/>
<path d="M215.535 234.082C215.535 234.082 217.408 243.003 216.003 245.351C214.599 247.699 223.962 250.985 223.962 250.985L232.858 247.229C232.858 247.229 230.517 232.674 232.858 229.857L215.535 234.082Z" fill="#FFB9B9"/>
<path opacity="0.1" d="M215.535 234.082C215.535 234.082 217.408 243.003 216.003 245.351C214.599 247.699 223.962 250.985 223.962 250.985L232.858 247.229C232.858 247.229 230.517 232.674 232.858 229.857L215.535 234.082Z" fill="black"/>
<path d="M206.762 341.351C208.021 343.969 209.056 346.689 209.856 349.482C209.869 349.574 209.902 349.663 209.951 349.742C210.001 349.82 210.067 349.888 210.144 349.939C210.221 349.991 210.309 350.026 210.4 350.041C210.492 350.056 210.586 350.052 210.676 350.029L219.003 350.019C220.031 350.018 221.41 349.687 221.399 348.656C221.392 347.932 220.654 347.481 220.104 347.011C218.58 345.706 218.183 343.555 217.552 341.648C216.324 337.974 213.96 334.788 210.801 332.556C210.374 332.22 209.883 331.977 209.358 331.84C208.83 331.764 208.293 331.793 207.776 331.926C206.314 332.222 200.855 333.234 201.887 335.367C202.331 336.285 203.976 337.241 204.666 338.098C205.47 339.111 206.172 340.2 206.762 341.351Z" fill="#575A89"/>
<path d="M235.721 331.665C235.427 332.284 235.101 332.886 234.742 333.47C233.536 335.465 232.112 337.327 230.988 339.37C230.231 340.619 229.763 342.022 229.62 343.476C229.556 344.203 229.667 344.935 229.944 345.611C230.22 346.286 230.654 346.885 231.209 347.357C232.418 348.277 234.076 348.319 235.578 348.105C237.081 347.891 238.574 347.459 240.088 347.573C239.577 344.677 242.012 342.129 242.621 339.253C242.792 338.445 242.818 337.607 243.047 336.814C243.294 336.088 243.609 335.388 243.99 334.724C245.202 332.356 246.059 329.821 246.533 327.201C246.59 326.884 239.13 326.832 238.431 326.983C236.247 327.457 236.566 329.849 235.721 331.665Z" fill="#575A89"/>
<path d="M178.223 286.175C176.094 289.518 176.584 293.947 178.08 297.619C179.576 301.29 181.956 304.536 183.586 308.15C184.624 310.454 185.353 312.897 186.522 315.138C187.971 317.911 190.086 320.356 191.058 323.332C191.677 325.229 191.819 327.308 192.823 329.031C193.43 329.952 194.122 330.814 194.891 331.604C197.052 334.087 198.675 336.995 199.657 340.141C200.574 337.401 203.321 335.604 206.142 335.012C208.963 334.419 211.886 334.821 214.74 335.226C213.148 332.752 211.54 330.248 210.591 327.462C209.674 324.767 209.403 321.901 208.784 319.122C207.517 313.423 204.808 308.167 202.127 302.984L215.909 301.888C218.158 301.661 220.42 301.577 222.68 301.636C226.237 301.804 229.722 302.679 233.26 303.083C236.798 303.487 240.541 303.381 243.695 301.721C237.665 310.397 234.525 320.763 234.723 331.337C236.071 330.29 237.635 329.558 239.301 329.195C240.967 328.833 242.693 328.848 244.352 329.241C246.011 329.634 247.562 330.393 248.89 331.465C250.219 332.536 251.292 333.892 252.03 335.433C257.431 328.031 256.789 317.727 261.069 309.621C261.949 307.954 263.027 306.402 263.977 304.774C265.772 301.505 267.308 298.1 268.573 294.59C269.77 291.519 270.976 288.102 269.827 285.013C269.351 283.841 268.656 282.77 267.781 281.858C265.312 279.128 261.875 277.108 258.201 277.024C252.56 276.895 247.9 281.088 242.952 283.807C237.045 286.955 230.364 288.345 223.696 287.812C216.899 287.329 210.408 285.098 203.933 283.133C200.693 282.104 197.401 281.253 194.07 280.581C191.293 280.059 188.648 280.638 185.912 281.35C182.932 282.125 179.938 283.484 178.223 286.175Z" fill="#2F2E41"/>
<path d="M237.071 225.161C237.068 228.896 235.587 232.477 232.954 235.118C230.321 237.759 226.75 239.244 223.026 239.247C222.189 239.249 221.353 239.173 220.53 239.022C217.902 238.546 215.463 237.328 213.5 235.511C211.538 233.694 210.132 231.354 209.449 228.764C208.765 226.175 208.833 223.443 209.642 220.891C210.452 218.338 211.971 216.07 214.021 214.352C216.071 212.635 218.566 211.539 221.215 211.193C223.864 210.848 226.556 211.267 228.975 212.402C231.395 213.536 233.442 215.34 234.876 217.6C236.31 219.86 237.071 222.483 237.071 225.161Z" fill="#FFB9B9"/>
<path d="M214.833 238.543C214.833 238.543 217.408 239.717 218.344 240.656C219.281 241.595 222.09 246.76 226.772 243.473C231.453 240.186 231.922 238.308 233.326 238.308C234.731 238.308 236.603 241.125 236.603 241.125L249.478 279.861C246.008 283.789 241.987 287.19 237.54 289.956C230.049 294.651 221.153 296.999 216.94 295.121C212.726 293.242 204.767 291.834 203.363 288.078C201.958 284.322 199.617 273.053 199.617 273.053L206.172 244.412L214.833 238.543Z" fill="#F2F2F2"/>
<path d="M213.025 277.719C214.046 275.508 214.194 273.005 214.281 270.57C214.418 268.159 214.354 265.74 214.09 263.339C213.675 260.198 212.655 257.172 212.011 254.07C211.447 251.35 211.172 248.577 211.192 245.799C211.202 244.531 211.293 243.196 211.982 242.133C212.463 241.391 213.215 240.817 213.515 239.985C214.104 238.355 212.649 236.647 211.054 235.976C209.112 235.245 206.988 235.16 204.994 235.732C203.016 236.305 201.105 237.089 199.293 238.07C197.923 238.656 196.663 239.473 195.568 240.485C194.115 241.993 193.476 244.094 192.96 246.126C192.547 247.753 192.18 249.449 192.494 251.098C193.004 253.776 195.181 255.79 196.341 258.255C197.688 261.117 197.598 264.453 197.062 267.573C196.526 270.692 195.575 273.742 195.281 276.894C194.988 280.046 195.438 283.433 197.407 285.908C198.209 286.916 200.386 289.305 201.855 289.035C203.009 288.822 204.682 286.275 205.611 285.467C208.297 283.135 211.483 281.06 213.025 277.719Z" fill="#2F2E41"/>
<path d="M237.554 237.012C237.595 239.63 236.444 242.119 235.091 244.359C233.737 246.599 232.147 248.717 231.15 251.138C229.91 254.167 229.657 257.513 230.426 260.695C230.713 261.78 231.057 262.847 231.459 263.894L234.025 270.95C234.37 272.059 234.871 273.114 235.512 274.082C236.092 274.823 236.772 275.48 237.534 276.032C239.482 277.61 241.724 278.783 244.129 279.483C246.551 280.178 249.137 280.03 251.464 279.064C251.711 269.498 253.244 260.009 256.02 250.854C256.533 249.164 257.093 247.384 256.698 245.663C256.254 243.735 254.71 242.287 253.242 240.965C248.752 236.922 243.815 232.674 237.805 232.129C234.327 231.814 237.525 235.118 237.554 237.012Z" fill="#2F2E41"/>
<path d="M206.831 291.601C207.187 292.3 207.408 293.061 207.76 293.762C208.28 294.702 208.922 295.569 209.671 296.338C212.801 299.819 216.628 303.287 221.297 303.497C221.761 303.54 222.229 303.481 222.667 303.324C223.062 303.121 223.402 302.825 223.656 302.46C223.91 302.096 224.071 301.674 224.126 301.233C224.457 299.415 223.656 297.6 222.855 295.936C221.118 292.328 219.164 288.629 215.912 286.302C214.288 285.187 212.434 284.454 210.487 284.161C208.54 283.867 206.553 284.019 204.673 284.607C202.98 285.13 200.171 286.044 202.414 287.594C204.115 288.769 205.844 289.664 206.831 291.601Z" fill="#FFB9B9"/>
<path d="M227.015 245.671C226.528 244.351 225.781 243.143 224.818 242.118C223.847 241.295 222.698 240.711 221.462 240.413C219.861 239.954 218.204 239.716 216.539 239.705C214.556 239.693 212.257 240.226 211.415 242.027C210.746 243.456 211.264 245.149 211.938 246.577C212.225 247.316 212.704 247.965 213.326 248.457C214.181 249.036 215.287 249.018 216.3 249.212C217.872 249.612 219.36 250.289 220.697 251.21L224.169 253.315L230.134 256.931C229.977 256.836 230.033 252.734 229.85 252.061C229.26 249.896 227.931 247.722 227.015 245.671Z" fill="#FFB9B9"/>
<path d="M209.639 348.419C208.243 350.321 208.523 353.04 207.287 355.05C206.215 356.793 204.195 357.706 202.855 359.25C202.427 359.763 202.045 360.313 201.715 360.894C200.472 362.983 199.461 365.66 200.685 367.76C201.671 369.45 203.742 370.11 205.641 370.56C208.041 371.129 210.535 371.584 212.964 371.149C215.392 370.715 217.765 369.224 218.631 366.907C218.801 366.325 219.003 365.752 219.237 365.192C220.553 362.594 224.681 362.566 226.028 359.983C226.97 358.176 226.104 355.992 225.238 354.146L222.592 348.51C221.715 346.64 218.156 347.715 216.3 347.267C213.881 346.682 211.38 346.038 209.639 348.419Z" fill="#2F2E41"/>
<path d="M230.1 343.577C229.017 344.433 228.189 345.57 227.707 346.865C226.398 349.895 225.948 353.215 225.512 356.488C225.263 357.789 225.237 359.124 225.436 360.434C226 363.106 228.415 365.074 231.014 365.891C233.613 366.709 236.4 366.583 239.121 366.449C239.999 366.471 240.87 366.294 241.669 365.93C243.037 365.174 243.571 363.397 243.336 361.849C243.102 360.3 242.259 358.923 241.433 357.594C240.608 356.265 239.764 354.888 239.527 353.341C239.13 350.737 240.252 346.916 238.657 344.56C237.059 342.2 232.234 342.078 230.1 343.577Z" fill="#2F2E41"/>
<path d="M236.718 217.821C236.468 216.978 235.918 216.258 235.172 215.797C235.21 214.894 235.1 213.992 234.845 213.126C233.995 210.604 231.98 210.748 230.078 209.633C229.254 209.15 229.304 208.722 228.875 207.927C228.312 206.886 227.47 206.024 226.443 205.438C225.223 204.659 223.935 203.856 222.492 203.758C219.46 203.551 217.135 206.411 214.237 207.329C212.959 207.734 211.587 207.75 210.302 208.133C209.018 208.515 207.737 209.429 207.545 210.758C207.457 211.372 207.613 212.002 207.523 212.616C207.345 213.836 206.278 214.69 205.564 215.693C203.984 217.912 204.165 221.046 205.428 223.46C205.694 223.96 205.999 224.438 206.339 224.89C206.444 226.031 206.771 227.14 207.301 228.155C208.564 230.569 210.738 232.373 213.009 233.872C212.823 233.071 212.71 232.255 212.672 231.434C212.64 231.161 212.675 230.883 212.775 230.627C213.028 230.096 213.696 229.955 214.206 229.665C215.261 229.064 215.675 227.733 215.705 226.516C215.736 225.299 215.479 224.08 215.606 222.87C215.611 222.591 215.674 222.317 215.791 222.064C215.908 221.812 216.077 221.587 216.286 221.404C216.676 221.181 217.12 221.075 217.568 221.097C219.73 221.009 221.99 220.969 223.897 219.944C224.512 219.534 225.173 219.199 225.867 218.944C227.487 218.52 229.144 219.66 230.078 221.054C231.012 222.448 231.478 224.108 232.34 225.548C233.201 226.989 234.69 228.273 236.357 228.102C236.451 228.103 236.543 228.083 236.629 228.045C236.715 228.007 236.792 227.951 236.854 227.881C236.926 227.751 236.958 227.603 236.946 227.455L237.039 221.067C237.116 219.975 237.008 218.877 236.718 217.821Z" fill="#2F2E41"/>
<path d="M192.269 251.235C190.929 253.217 189.384 255.124 188.647 257.402C188.214 258.741 188.08 260.157 187.766 261.529C186.722 266.1 183.706 270.16 183.403 274.839C183.297 275.879 183.449 276.929 183.846 277.896C184.711 279.783 186.782 280.778 188.757 281.403C190.732 282.029 192.854 282.48 194.43 283.827C195.224 284.59 195.944 285.427 196.58 286.327C199.152 289.535 202.613 291.91 206.526 293.152C206.217 291.015 206.072 288.44 207.775 287.119C208.697 286.405 209.929 286.277 211.09 286.177L216.575 285.701C212.917 282.143 208.885 278.993 204.55 276.307C203.033 275.367 201.382 274.376 200.69 272.728C200.332 271.666 200.183 270.545 200.252 269.427C200.215 265.335 199.869 261.252 199.219 257.213C198.767 254.408 198.169 251.629 197.486 248.872C197.294 248.098 196.159 244.626 194.762 245.438C194.433 245.63 194.125 247.832 193.933 248.289C193.476 249.323 192.918 250.31 192.269 251.235Z" fill="#2F2E41"/>
<path d="M255.45 243.742L257.69 248.414C258.769 250.336 259.26 252.533 259.102 254.732L259.235 268.748C259.338 270.62 259.184 272.498 258.775 274.329C258.636 274.932 258.373 275.499 258.003 275.995C257.623 276.423 257.175 276.784 256.678 277.066C252.438 279.722 246.941 281.232 242.461 279.006C241.435 278.457 240.46 277.819 239.547 277.098C237.761 275.772 235.95 274.42 234.614 272.64C233.216 270.777 232.415 268.546 231.475 266.414C229.787 262.588 227.607 259.001 224.989 255.745C224.555 255.314 224.273 254.754 224.186 254.148C224.158 252.92 225.612 252.315 226.745 251.848C228.681 251.049 230.506 249.508 230.83 247.434C234.947 252.848 239.49 258.569 245.986 260.547C246.088 260.613 246.206 260.649 246.327 260.653C246.448 260.656 246.567 260.627 246.673 260.568C246.778 260.509 246.866 260.423 246.927 260.318C246.988 260.213 247.019 260.094 247.017 259.973C247.386 258.425 247.517 256.832 247.786 255.264C248.281 252.409 249.234 249.654 250.608 247.105C251.377 245.676 253.868 240.444 255.45 243.742Z" fill="#2F2E41"/>
<path opacity="0.1" d="M199.86 257.254C199.922 260.57 199.219 263.856 197.807 266.856C197.439 267.519 197.169 268.232 197.003 268.972C196.757 270.55 197.653 272.078 198.677 273.302C200.697 275.71 203.316 277.537 206.269 278.599" fill="black"/>
<path opacity="0.1" d="M248.505 254.458C248.175 255.348 248.475 256.333 248.729 257.248C249.466 259.901 249.811 262.649 249.751 265.403C249.761 265.451 249.76 265.501 249.746 265.548C249.733 265.596 249.708 265.639 249.674 265.674C249.639 265.71 249.597 265.736 249.55 265.751C249.503 265.765 249.453 265.768 249.404 265.758C248.324 265.825 247.087 265.832 246.354 265.033" fill="black"/>
<path opacity="0.1" d="M432.145 387.177C472.423 387.177 505.075 380.16 505.075 371.504C505.075 362.848 472.423 355.831 432.145 355.831C391.867 355.831 359.215 362.848 359.215 371.504C359.215 380.16 391.867 387.177 432.145 387.177Z" fill="black"/>
<path d="M468.61 231.61L463.4 236.834L468.61 242.058L473.819 231.61H468.61Z" fill="#A0616A"/>
<path d="M469.783 186.309C471.245 186.909 471.941 188.55 472.491 190.034L479.249 208.245L480.564 211.789C481.209 213.527 481.855 215.267 482.4 217.039C482.745 218.16 483.05 219.292 483.314 220.436C483.588 221.415 483.693 222.434 483.626 223.449C483.443 224.565 483.037 225.632 482.431 226.587C480.08 230.693 476.732 234.137 472.698 236.598C472.466 235.092 471.86 233.669 470.937 232.459C470.015 231.248 468.804 230.289 467.416 229.669L470.91 227.742C471.649 227.394 472.314 226.906 472.868 226.304C473.207 225.834 473.447 225.301 473.576 224.736C473.704 224.172 473.718 223.587 473.616 223.016C473.406 221.879 473.058 220.771 472.579 219.719C471.406 216.784 470.389 213.79 469.531 210.748C469.024 208.949 468.557 207.099 467.551 205.525C466.639 204.097 465.318 202.954 464.489 201.476C463.225 199.222 463.257 196.448 463.815 193.924C464.286 191.793 465.076 189.742 465.741 187.668C466.263 186.038 468.218 185.667 469.783 186.309Z" fill="#D0CDE1"/>
<path d="M437.565 137.656C434.878 138.566 432.444 140.695 431.894 143.485C431.638 144.778 431.795 146.123 431.58 147.423C431.082 150.44 428.721 152.744 426.543 154.884C424.366 157.024 422.117 159.511 421.958 162.564C421.784 165.908 424.202 169.04 423.783 172.362C423.297 176.222 419.232 178.722 418.228 182.48C417.557 184.988 418.379 187.691 419.732 189.906C422.309 194.127 426.715 196.993 431.407 198.53C436.099 200.066 441.096 200.389 446.031 200.441C452.041 200.504 458.566 199.987 463.081 196.009C465.66 193.717 467.28 190.531 467.615 187.092C468.044 182.484 466.127 177.724 467.449 173.29C468.282 170.5 470.369 167.952 470.058 165.057C469.753 162.226 467.287 160.219 465.596 157.932C464.017 155.796 463.059 153.275 462.119 150.788L458.906 142.282C458.274 140.61 457.58 138.851 456.173 137.753C453.537 135.699 449.299 136.102 446.218 136.526C443.359 136.919 440.314 136.725 437.565 137.656Z" fill="#2F2E41"/>
<path d="M440.051 165.69C440.051 165.69 440.365 175.153 439.422 176.1C438.478 177.046 443.196 183.355 443.196 183.355L451.688 183.039L456.092 179.57L452.318 174.523C452.318 174.523 450.745 166.321 452.003 164.429C453.261 162.536 440.051 165.69 440.051 165.69Z" fill="#A0616A"/>
<path opacity="0.1" d="M440.051 165.69C440.051 165.69 440.365 175.153 439.422 176.1C438.478 177.046 443.196 183.355 443.196 183.355L451.688 183.039L456.092 179.57L452.318 174.523C452.318 174.523 450.745 166.321 452.003 164.429C453.261 162.536 440.051 165.69 440.051 165.69Z" fill="black"/>
<path d="M420.392 238.714L425.739 250.701L429.828 245.654L421.65 234.929L420.392 238.714Z" fill="#A0616A"/>
<path d="M406.081 358.738L403.879 371.041L400.104 376.403L402.306 377.664L406.081 377.033L410.484 375.456L412.371 368.202L415.831 358.738H406.081Z" fill="#A0616A"/>
<path d="M446.341 351.168L445.083 368.833L448.228 371.356L453.261 366.94V354.007L446.341 351.168Z" fill="#A0616A"/>
<path d="M445.24 169.318C451.494 169.318 456.563 164.234 456.563 157.962C456.563 151.69 451.494 146.606 445.24 146.606C438.987 146.606 433.917 151.69 433.917 157.962C433.917 164.234 438.987 169.318 445.24 169.318Z" fill="#A0616A"/>
<path d="M453.978 173.236C453.639 173.072 453.268 172.983 452.892 172.976C452.515 172.969 452.142 173.043 451.796 173.194C451.109 173.499 450.442 173.847 449.8 174.237C448.147 175.099 446.274 175.441 444.424 175.218C444.207 175.201 443.994 175.146 443.796 175.055C443.586 174.924 443.392 174.768 443.22 174.589C442.55 174.043 441.694 173.779 440.833 173.854C439.972 173.928 439.174 174.335 438.606 174.988C438.274 175.404 438.046 175.9 437.683 176.289C436.743 177.297 435.192 177.338 433.816 177.336C430.963 177.256 428.11 177.518 425.319 178.117C422.516 178.723 419.934 180.095 417.858 182.081C417.292 182.616 416.841 183.261 416.533 183.976C416.154 184.958 416.203 186.06 415.862 187.056C415.482 188.165 414.641 189.074 414.3 190.196C414.044 191.041 414.08 191.981 413.65 192.752C415.489 194.347 417.046 196.475 418.884 198.071C420.101 199.127 421.375 200.27 421.833 201.818C422.038 202.772 422.13 203.747 422.105 204.723C422.332 209.389 424.856 213.622 427.677 217.339C428.451 218.441 429.377 219.428 430.427 220.269C431.853 221.243 433.473 221.895 435.175 222.18C438.388 222.84 441.695 222.836 444.975 222.804C448.364 222.77 451.814 222.698 455.035 221.641C456.675 221.182 458.15 220.264 459.288 218.993C460.613 217.361 461.13 215 462.938 213.93C463.376 213.729 463.79 213.481 464.175 213.19C464.543 212.789 464.803 212.301 464.932 211.772C465.564 209.791 465.913 207.729 465.967 205.65C465.921 204.402 466.005 203.152 466.219 201.922C466.532 200.838 466.987 199.801 467.574 198.838L471.32 192.023C471.625 191.469 471.546 190.654 471.573 190.022C471.546 189.111 471.267 188.226 470.768 187.464C468.338 183.157 464.52 179.805 459.941 177.96C459.58 177.837 459.237 177.668 458.919 177.457C458.544 177.141 458.227 176.762 457.982 176.337C456.988 174.835 455.774 173.142 453.978 173.236Z" fill="#D0CDE1"/>
<path d="M407.282 210.349C406.544 212.15 406.001 214.027 405.664 215.945C405.303 218.596 405.729 221.294 406.889 223.703C408.908 227.871 412.884 230.698 415.689 234.38C418.296 237.801 419.848 241.901 422.106 245.564C421.712 244.631 422.19 243.552 422.834 242.773C423.478 241.993 424.302 241.347 424.774 240.452C425.096 239.759 425.298 239.016 425.372 238.256C425.709 235.985 425.891 233.517 424.736 231.535C423.867 230.042 422.366 229.051 421.178 227.8C419.989 226.526 419.116 224.991 418.628 223.317C418.139 221.642 418.05 219.877 418.367 218.162C418.596 216.981 419.017 215.848 419.332 214.687C419.722 213.128 420.017 211.546 420.216 209.951L421.632 200.194C422.009 197.599 422.328 194.728 420.862 192.556C420.576 192.101 420.181 191.726 419.713 191.465C419.325 191.287 418.912 191.171 418.489 191.12C416.948 190.867 414.86 190.19 414.107 191.846C413.199 193.846 412.566 196.025 411.806 198.087L407.282 210.349Z" fill="#D0CDE1"/>
<path d="M461.265 215.687C461.265 215.687 442.567 219.315 438.164 219.315H430.3C430.3 219.315 427.47 224.362 427.47 229.409C427.47 234.456 408.912 305.114 408.912 305.114C408.912 305.114 391.298 363.154 410.799 363.47C430.3 363.785 442.567 364.732 442.882 358.107C443.196 351.483 445.084 266 445.084 266L448.019 309.955C448.809 320.837 447.966 331.776 445.52 342.407C444.112 348.367 444.33 354.901 451.374 356.215C464.899 358.738 481.884 356.53 481.884 351.799C481.884 347.067 473.077 242.026 473.077 242.026C473.077 242.026 468.674 226.57 466.157 225.308C463.641 224.046 461.265 215.687 461.265 215.687Z" fill="#2F2E41"/>
<path d="M402.621 375.772L409.541 373.248L414.259 361.262L419.291 360.631C419.291 360.631 416.46 366.624 414.888 367.571C413.315 368.517 410.799 376.403 410.799 376.403C410.799 376.403 412.057 379.557 406.081 380.819C400.105 382.081 395.701 383.027 395.701 383.027C395.701 383.027 395.072 381.765 397.903 378.611C400.734 375.457 404.039 370.146 404.039 370.146L402.621 375.772Z" fill="#2F2E41"/>
<path d="M445.083 361.262L443.825 370.725C443.825 370.725 447.285 375.772 448.229 375.772C449.172 375.772 454.205 371.356 454.205 371.356C454.205 371.356 453.89 366.624 454.205 365.363C454.519 364.101 455.148 358.107 454.205 357.792C453.261 357.477 453.261 364.822 453.261 364.822L449.172 369.148L445.23 366.777L445.083 361.262Z" fill="#2F2E41"/>
<path d="M446.184 157.962C452.959 157.962 458.451 154.996 458.451 151.338C458.451 147.679 452.959 144.714 446.184 144.714C439.409 144.714 433.917 147.679 433.917 151.338C433.917 154.996 439.409 157.962 446.184 157.962Z" fill="#2F2E41"/>
<path d="M0 281.333C0 318.492 23.2453 348.561 51.9719 348.561Z" fill="#3F3D56"/>
<path d="M51.9717 348.561C51.9717 310.984 77.912 280.577 109.969 280.577Z" fill="#31A05E"/>
<path d="M18.8301 284.701C18.8301 319.999 33.6531 348.561 51.9716 348.561Z" fill="#31A05E"/>
<path d="M51.9717 348.561C51.9717 300.546 81.9546 261.693 119.008 261.693Z" fill="#3F3D56"/>
<path d="M41.0381 349.035C41.0381 349.035 48.4086 348.808 50.6298 347.221C52.8511 345.635 61.9675 343.741 62.5185 346.285C63.0696 348.829 73.595 358.938 65.2737 359.005C56.9525 359.073 45.9389 357.705 43.7219 356.351C41.5049 354.997 41.0381 349.035 41.0381 349.035Z" fill="#A8A8A8"/>
<path opacity="0.2" d="M65.4222 358.12C57.101 358.187 46.0874 356.82 43.8704 355.466C42.182 354.434 41.5093 350.733 41.2841 349.026C41.1282 349.033 41.0381 349.035 41.0381 349.035C41.0381 349.035 41.5049 354.997 43.7219 356.351C45.9389 357.706 56.9525 359.073 65.2738 359.005C67.6758 358.986 68.5055 358.129 68.4599 356.86C68.1262 357.626 67.2101 358.105 65.4222 358.12Z" fill="black"/>
</g>
<defs>
<clipPath id="clip0_418_1625">
<rect width="600" height="440" fill="white"/>
</clipPath>
</defs>
</svg>
