<svg width="600" height="500" viewBox="0 0 600 500" fill="none" xmlns="http://www.w3.org/2000/svg">
<g clip-path="url(#clip0_418_2337)">
<path d="M27.8799 476.447C36.2025 491.855 53.8661 498.469 53.8661 498.469C53.8661 498.469 58.036 480.103 49.7134 464.695C41.3908 449.287 23.7273 442.673 23.7273 442.673C23.7273 442.673 19.5573 461.04 27.8799 476.447Z" fill="#2F2E41"/>
<path d="M33.6004 471.378C48.6261 480.402 54.413 498.327 54.413 498.327C54.413 498.327 35.8383 501.62 20.8126 492.596C5.78688 483.572 0 465.647 0 465.647C0 465.647 18.5746 462.354 33.6004 471.378Z" fill="#31A05E"/>
<path d="M370.478 24.0034H276.729V25.3404H370.478V24.0034Z" fill="#F2F2F2"/>
<path d="M345.033 25.0061H343.693V37.3729H345.033V25.0061Z" fill="#F2F2F2"/>
<path d="M304.184 25.0061H302.845V37.3729H304.184V25.0061Z" fill="#F2F2F2"/>
<path d="M418.023 88.177H324.273V89.514H418.023V88.177Z" fill="#F2F2F2"/>
<path d="M351.059 76.1445H349.72V88.5113H351.059V76.1445Z" fill="#F2F2F2"/>
<path d="M391.908 76.1445H390.568V88.5113H391.908V76.1445Z" fill="#F2F2F2"/>
<path d="M542.577 118.258H448.827V119.595H542.577V118.258Z" fill="#F2F2F2"/>
<path d="M475.613 106.226H474.273V118.593H475.613V106.226Z" fill="#F2F2F2"/>
<path d="M516.461 106.226H515.122V118.593H516.461V106.226Z" fill="#F2F2F2"/>
<path d="M533.202 428.431H439.452V429.768H533.202V428.431Z" fill="#F2F2F2"/>
<path d="M466.238 416.398H464.898V428.765H466.238V416.398Z" fill="#F2F2F2"/>
<path d="M507.086 416.398H505.747V428.765H507.086V416.398Z" fill="#F2F2F2"/>
<path d="M373.157 213.85H279.407V215.187H373.157V213.85Z" fill="#F2F2F2"/>
<path d="M306.193 201.818H304.854V214.185H306.193V201.818Z" fill="#F2F2F2"/>
<path d="M347.041 201.818H345.702V214.185H347.041V201.818Z" fill="#F2F2F2"/>
<path d="M402.622 374.953H308.872V376.29H402.622V374.953Z" fill="#F2F2F2"/>
<path d="M335.658 362.92H334.318V375.287H335.658V362.92Z" fill="#F2F2F2"/>
<path d="M376.505 362.92H375.166V375.287H376.505V362.92Z" fill="#F2F2F2"/>
<path d="M552.622 326.154H458.872V327.491H552.622V326.154Z" fill="#F2F2F2"/>
<path d="M485.658 314.121H484.318V326.488H485.658V314.121Z" fill="#F2F2F2"/>
<path d="M526.505 314.121H525.166V326.488H526.505V314.121Z" fill="#F2F2F2"/>
<path d="M242.451 469.392H83.8887V468.254H241.31V413.024H97.2186L90.2188 398.467L91.2474 397.974L97.9364 411.885H242.451V469.392Z" fill="#2F2E41"/>
<path d="M104.992 497.292C111.607 497.292 116.97 491.938 116.97 485.335C116.97 478.731 111.607 473.378 104.992 473.378C98.3773 473.378 93.0146 478.731 93.0146 485.335C93.0146 491.938 98.3773 497.292 104.992 497.292Z" fill="#3F3D56"/>
<path d="M223.059 497.292C229.674 497.292 235.036 491.938 235.036 485.335C235.036 478.731 229.674 473.378 223.059 473.378C216.444 473.378 211.081 478.731 211.081 485.335C211.081 491.938 216.444 497.292 223.059 497.292Z" fill="#3F3D56"/>
<path d="M362.228 238.796C366.323 238.796 369.643 235.482 369.643 231.395C369.643 227.307 366.323 223.993 362.228 223.993C358.133 223.993 354.813 227.307 354.813 231.395C354.813 235.482 358.133 238.796 362.228 238.796Z" fill="#3F3D56"/>
<path d="M259.41 394.235H81.1857L42.6221 268.404H299.125L298.891 269.144L259.41 394.235ZM82.0295 393.096H258.574L297.57 269.543H44.1638L82.0295 393.096Z" fill="#2F2E41"/>
<path d="M245.498 387.687H88.9568L55.085 276.09H280.38L280.175 276.747L245.498 387.687Z" fill="#F2F2F2"/>
<path d="M302.321 257.162L301.218 256.87L308.745 228.548H352.533V229.687H309.623L302.321 257.162Z" fill="#2F2E41"/>
<path d="M286.307 306.552H55.084V307.69H286.307V306.552Z" fill="#2F2E41"/>
<path d="M273.065 348.505H67.9414V349.644H273.065V348.505Z" fill="#2F2E41"/>
<path d="M171.441 268.973H170.3V393.666H171.441V268.973Z" fill="#2F2E41"/>
<path d="M222.513 268.937L214.324 393.627L215.463 393.701L223.651 269.012L222.513 268.937Z" fill="#2F2E41"/>
<path d="M119.251 268.936L118.112 269.01L126.253 393.703L127.392 393.629L119.251 268.936Z" fill="#2F2E41"/>
<path d="M600 498.014H0V499.351H600V498.014Z" fill="#2F2E41"/>
<path d="M398.713 41.3626C398.713 41.3626 408.502 69.1753 402.478 73.4542C396.454 77.7331 422.809 112.677 422.809 112.677L454.436 104.119L437.116 74.8805C437.116 74.8805 434.857 45.6414 434.857 41.3625C434.857 37.0837 398.713 41.3626 398.713 41.3626Z" fill="#A0616A"/>
<path opacity="0.1" d="M398.713 41.3626C398.713 41.3626 408.502 69.1753 402.478 73.4542C396.454 77.7331 422.809 112.677 422.809 112.677L454.436 104.119L437.116 74.8805C437.116 74.8805 434.857 45.6414 434.857 41.3625C434.857 37.0837 398.713 41.3626 398.713 41.3626Z" fill="black"/>
<path d="M382.282 239.617C382.282 239.617 379.424 275.275 382.282 293.817C385.139 312.358 389.426 363.705 389.426 363.705C389.426 363.705 389.426 460.693 405.142 462.119C420.859 463.546 432.289 464.972 433.718 459.267C435.147 453.562 426.574 450.709 430.86 447.856C435.147 445.004 436.576 435.02 430.86 423.609C425.145 412.199 430.86 296.669 430.86 296.669L458.007 369.41C458.007 369.41 460.865 429.315 463.723 437.872C466.58 446.43 460.865 462.119 470.867 463.546C480.868 464.972 492.298 456.414 498.013 453.562C503.729 450.709 489.441 450.709 492.298 449.283C495.156 447.856 503.729 443.578 500.871 442.151C498.013 440.725 495.156 372.263 495.156 372.263C495.156 372.263 487.298 226.068 477.296 220.362C467.295 214.657 460.865 224.484 460.865 224.484L382.282 239.617Z" fill="#2F2E41"/>
<path d="M407.999 456.414V467.825C407.999 467.825 395.14 498.841 407.999 498.841C420.858 498.841 430.86 502.056 430.86 497.777V459.267L407.999 456.414Z" fill="#2F2E41"/>
<path d="M492.298 456.394V467.804C492.298 467.804 505.157 498.821 492.298 498.821C479.439 498.821 469.438 502.035 469.438 497.756V459.246L492.298 456.394Z" fill="#2F2E41"/>
<path d="M418.715 62.0439C432.919 62.0439 444.433 50.5495 444.433 36.3706C444.433 22.1916 432.919 10.6973 418.715 10.6973C404.512 10.6973 392.997 22.1916 392.997 36.3706C392.997 50.5495 404.512 62.0439 418.715 62.0439Z" fill="#A0616A"/>
<path d="M410.858 84.1514C410.858 84.1514 418.001 105.546 429.432 101.267L440.862 96.988L460.865 233.912C460.865 233.912 445.148 256.733 422.288 242.47C399.427 228.207 410.858 84.1514 410.858 84.1514Z" fill="#31A05E"/>
<path d="M430.86 79.8725L437.29 66.3227C437.29 66.3227 475.153 84.1514 480.868 89.8566C486.583 95.5617 486.583 104.119 486.583 104.119L476.582 139.777C476.582 139.777 479.439 218.223 479.439 221.076C479.439 223.928 489.441 239.617 482.297 233.912C475.153 228.207 473.724 222.502 468.009 231.06C462.294 239.617 449.435 249.602 449.435 249.602L430.86 79.8725Z" fill="#3F3D56"/>
<path d="M480.868 182.566L476.582 222.502C476.582 222.502 450.864 245.323 456.579 246.749C462.294 248.175 465.151 242.47 465.151 242.47C465.151 242.47 475.153 252.454 480.868 246.749C486.583 241.044 500.871 186.845 500.871 186.845L480.868 182.566Z" fill="#A0616A"/>
<path d="M419.263 0.0868155C413.562 -0.116648 407.46 -0.217294 402.653 2.84976C400.441 4.38898 398.501 6.28469 396.913 8.45929C392.231 14.3676 388.186 21.8015 389.925 29.1321L391.945 28.3457C391.945 30.3025 391.509 32.2348 390.669 34.0028C390.953 33.1771 391.906 34.5118 391.651 35.347L389.426 42.6338C393.083 41.2952 397.633 44.0054 398.19 47.8544C398.444 39.3906 399.324 29.6855 406.202 24.7296C409.67 22.2304 414.06 21.4675 418.283 20.79C422.179 20.1649 426.264 19.5689 429.996 20.8494C433.728 22.1298 436.906 25.9398 436.06 29.7875C437.78 29.1958 439.705 30.3929 440.555 31.9992C441.406 33.6055 441.45 35.5003 441.476 37.3169C443.31 38.611 445.398 36.0414 446.145 33.927C447.9 28.964 449.459 23.681 448.514 18.5033C447.569 13.3256 443.342 8.37743 438.07 8.35987C438.71 7.65819 439.052 6.73555 439.022 5.78708L434.677 5.42056C435.78 5.26462 436.794 4.73066 437.547 3.91011C435.802 5.82658 422.084 0.187494 419.263 0.0868155Z" fill="#2F2E41"/>
<path d="M418.001 75.5936C418.001 75.5936 406.369 64.2156 402.184 64.9125C397.998 65.6095 392.282 75.5936 392.282 75.5936C392.282 75.5936 357.992 87.0039 359.42 98.4143C360.849 109.825 376.566 165.45 376.566 165.45C376.566 165.45 389.425 232.486 377.995 239.617C366.564 246.749 432.288 265.291 433.717 256.733C435.146 248.175 438.004 162.598 433.717 149.761C429.431 136.924 418.001 75.5936 418.001 75.5936Z" fill="#3F3D56"/>
<path d="M468.009 98.4143H485.676C485.676 98.4143 498.013 152.613 499.442 158.319C500.871 164.024 503.728 191.123 502.3 191.123C500.871 191.123 472.295 185.418 472.295 189.697L468.009 98.4143Z" fill="#3F3D56"/>
<path d="M467.411 232.629H399.777C393.177 202.321 392.626 173.037 399.777 145.059H467.411C456.496 172.534 455.814 201.617 467.411 232.629Z" fill="#F2F2F2"/>
<path d="M372.28 195.402L392.283 203.96C392.283 203.96 430.861 209.665 430.861 193.976C430.861 178.287 392.283 186.845 392.283 186.845L379.423 182.74L372.28 195.402Z" fill="#A0616A"/>
<path d="M376.566 89.8566L359.421 94.1355L346.561 169.729C346.561 169.729 342.275 189.697 349.419 191.123C356.563 192.55 376.566 203.96 376.566 203.96C376.566 203.96 379.424 182.566 385.139 182.566L370.851 171.155L379.424 121.235L376.566 89.8566Z" fill="#3F3D56"/>
<path d="M134.095 235.91H40.3447V237.247H134.095V235.91Z" fill="#F2F2F2"/>
<path d="M67.1303 223.877H65.791V236.244H67.1303V223.877Z" fill="#F2F2F2"/>
<path d="M107.979 223.877H106.64V236.244H107.979V223.877Z" fill="#F2F2F2"/>
<path d="M166.907 38.0414H73.1572V39.3783H166.907V38.0414Z" fill="#F2F2F2"/>
<path d="M141.461 39.0442H140.122V51.411H141.461V39.0442Z" fill="#F2F2F2"/>
<path d="M100.613 39.0442H99.2734V51.411H100.613V39.0442Z" fill="#F2F2F2"/>
<path d="M261.327 169.731H167.577V171.068H261.327V169.731Z" fill="#F2F2F2"/>
<path d="M235.88 170.734H234.541V183.1H235.88V170.734Z" fill="#F2F2F2"/>
<path d="M195.033 170.734H193.693V183.1H195.033V170.734Z" fill="#F2F2F2"/>
<path d="M101.952 169.062H8.20215V170.399H101.952V169.062Z" fill="#F2F2F2"/>
<path d="M76.5053 170.065H75.166V182.432H76.5053V170.065Z" fill="#F2F2F2"/>
<path d="M35.6576 170.065H34.3184V182.432H35.6576V170.065Z" fill="#F2F2F2"/>
<path d="M214.452 102.215H120.702V103.552H214.452V102.215Z" fill="#F2F2F2"/>
<path d="M147.488 90.1824H146.148V102.549H147.488V90.1824Z" fill="#F2F2F2"/>
<path d="M188.336 90.1824H186.997V102.549H188.336V90.1824Z" fill="#F2F2F2"/>
</g>
<defs>
<clipPath id="clip0_418_2337">
<rect width="600" height="500" fill="white"/>
</clipPath>
</defs>
</svg>
