<svg width="300" height="250" viewBox="0 0 300 250" fill="none" xmlns="http://www.w3.org/2000/svg">
<path d="M98.7495 180.099C97.6077 190.461 93.4095 199.94 88.9307 209.072C88.7826 209.383 88.6302 209.689 88.4741 210H41.9243C40.9828 209.717 40.0535 209.406 39.1281 209.072C33.8704 207.218 28.9068 204.389 24.4301 200.697C7.30441 186.405 0.71445 159.4 3.69099 135.202C5.54181 120.168 11.2382 104.819 22.3308 96.7218C28.1877 92.439 35.7109 91.047 42.453 92.6385C42.6294 92.6756 42.8057 92.722 42.9858 92.7638C48.7865 94.2765 53.9542 98.0349 56.8948 104.09C62.1826 114.971 59.0339 128.451 56.4341 140.561C53.8422 152.672 52.4359 167.167 59.9593 176.1C57.4755 167.631 59.9272 157.53 65.8602 151.804C70.3429 147.484 76.5842 145.865 82.2768 147.206C82.8215 147.34 83.3585 147.494 83.8872 147.679C85.1652 148.113 86.3973 148.71 87.5607 149.461C96.4339 155.201 100.027 168.42 98.7495 180.099Z" fill="#F2F2F2"/>
<path d="M72.0405 209.067C73.3548 209.417 74.6733 209.725 76 210H68.8278C67.8888 209.711 66.954 209.403 66.0275 209.067C63.9905 208.339 61.9847 207.504 60.0104 206.562C52.0911 202.765 44.7964 197.065 39.2773 189.48C36.5782 185.805 34.3741 181.691 32.7378 177.272C30.9635 172.279 29.8359 167.016 29.3906 161.65C28.3904 150.641 29.4109 139.329 31.3172 128.517C33.2845 117.31 36.4602 106.425 40.7715 96.1108C41.2899 94.8746 41.826 93.6463 42.3798 92.4257C42.4179 92.3252 42.4756 92.236 42.5484 92.1648C42.6213 92.0937 42.7074 92.0425 42.8002 92.0152C42.9886 91.9734 43.1838 92.0187 43.3431 92.1411C43.5343 92.2664 43.676 92.4709 43.7391 92.7122C43.8022 92.9535 43.7817 93.2133 43.682 93.4379C39.2368 103.344 35.8672 113.833 33.6481 124.673C31.4765 135.248 30.2437 146.313 30.6641 157.186C31.0641 167.346 33.387 177.338 38.6569 185.645C43.4697 193.23 50.1153 199.21 57.4673 203.283C62.1206 205.827 67.0089 207.767 72.0405 209.067Z" fill="white"/>
<path d="M87 210H84.8881C84.6517 209.693 84.4233 209.381 84.1992 209.069C79.389 202.395 76.1303 194.444 74.7246 185.951C73.0174 175.352 74.3455 164.407 78.5119 154.737C79.6744 152.026 81.044 149.437 82.6051 147C83.1594 147.135 83.7059 147.289 84.2439 147.475C80.138 153.687 77.3763 160.919 76.1841 168.582C75.1206 175.762 75.4742 183.123 77.2191 190.127C78.964 197.132 82.0563 203.603 86.2702 209.069C86.5065 209.381 86.7512 209.693 87 210Z" fill="white"/>
<path d="M274.068 202.145C274.377 204.867 275.514 207.357 276.727 209.756C276.767 209.838 276.808 209.918 276.851 210H289.458C289.713 209.926 289.965 209.844 290.215 209.756C291.639 209.269 292.984 208.526 294.196 207.556C298.834 203.802 300.619 196.708 299.813 190.351C299.312 186.402 297.769 182.37 294.765 180.243C293.133 179.126 291.187 178.743 289.315 179.17C289.267 179.18 289.219 179.192 289.171 179.203C288.391 179.372 287.653 179.725 287.004 180.238C286.354 180.75 285.809 181.412 285.404 182.178C283.971 185.037 284.824 188.578 285.528 191.759C286.23 194.94 286.611 198.748 284.574 201.095C284.872 200.113 284.933 199.06 284.749 198.044C284.566 197.028 284.144 196.085 283.529 195.312C282.914 194.539 282.126 193.964 281.247 193.646C280.369 193.329 279.43 193.28 278.529 193.504C278.382 193.54 278.236 193.58 278.093 193.629C277.747 193.743 277.413 193.9 277.098 194.097C274.695 195.605 273.722 199.077 274.068 202.145Z" fill="#F2F2F2"/>
<path d="M282.012 209.755C281.676 209.847 281.339 209.928 281 210H282.833C283.073 209.924 283.312 209.843 283.549 209.755C284.07 209.564 284.582 209.344 285.087 209.097C287.134 208.121 288.951 206.582 290.386 204.609C291.076 203.644 291.639 202.563 292.058 201.402C292.511 200.09 292.799 198.708 292.913 197.298C293.121 194.384 292.955 191.45 292.421 188.593C291.918 185.649 291.106 182.79 290.004 180.08C289.872 179.755 289.735 179.432 289.593 179.112C289.583 179.085 289.569 179.062 289.55 179.043C289.531 179.025 289.509 179.011 289.486 179.004C289.438 178.993 289.388 179.005 289.347 179.037C289.298 179.07 289.262 179.124 289.246 179.187C289.23 179.25 289.235 179.319 289.26 179.378C290.396 181.98 291.258 184.736 291.825 187.584C292.409 190.377 292.666 193.25 292.588 196.125C292.546 198.799 291.835 201.399 290.545 203.602C289.289 205.586 287.638 207.177 285.737 208.235C284.547 208.904 283.298 209.413 282.012 209.755Z" fill="white"/>
<path d="M278 210H278.487C278.542 209.917 278.595 209.833 278.646 209.749C279.756 207.948 280.508 205.802 280.833 203.511C281.227 200.65 280.92 197.697 279.959 195.088C279.691 194.356 279.374 193.657 279.014 193C278.886 193.036 278.76 193.078 278.636 193.128C279.584 194.804 280.221 196.756 280.496 198.824C280.741 200.761 280.66 202.747 280.257 204.638C279.854 206.528 279.141 208.274 278.168 209.749C278.114 209.833 278.057 209.917 278 210Z" fill="white"/>
<path d="M163 139H124.411L124.002 125.265C123.984 124.67 124.078 124.077 124.278 123.528C124.477 122.978 124.776 122.486 125.156 122.083C125.535 121.681 125.985 121.378 126.476 121.196C126.966 121.015 127.484 120.958 127.995 121.031L150.451 124.214H150.454C153.783 124.224 156.973 125.762 159.324 128.49C161.676 131.218 162.998 134.913 163 138.767V139Z" fill="#31A05E"/>
<path d="M146.305 90H119.695C119.341 89.9999 118.99 90.0826 118.663 90.2434C118.336 90.4041 118.039 90.6398 117.789 90.937C117.539 91.2342 117.34 91.587 117.205 91.9753C117.07 92.3636 117 92.7797 117 93.2V124.8C117 125.22 117.07 125.636 117.205 126.025C117.34 126.413 117.539 126.766 117.789 127.063C118.039 127.36 118.336 127.596 118.663 127.757C118.99 127.917 119.341 128 119.695 128H146.305C146.659 128 147.01 127.917 147.337 127.757C147.664 127.596 147.961 127.36 148.211 127.063C148.461 126.766 148.66 126.413 148.795 126.025C148.93 125.636 149 125.22 149 124.8V93.2C149 92.7797 148.93 92.3636 148.795 91.9753C148.66 91.587 148.461 91.2342 148.211 90.937C147.961 90.6398 147.664 90.4041 147.337 90.2434C147.01 90.0826 146.659 89.9999 146.305 90Z" fill="#CCCCCC"/>
<path d="M139.715 113.145L127.318 115.94C126.582 116.105 125.821 115.925 125.199 115.441C124.578 114.956 124.149 114.206 124.005 113.355L123.052 107.69C122.909 106.839 123.064 105.957 123.483 105.238C123.902 104.519 124.55 104.021 125.285 103.855L137.682 101.06C138.418 100.895 139.179 101.075 139.801 101.559C140.422 102.044 140.851 102.794 140.995 103.645L141.948 109.31C142.091 110.161 141.936 111.043 141.517 111.762C141.098 112.481 140.45 112.979 139.715 113.145Z" fill="#3F3D56"/>
<path d="M137.452 106.661L127.807 108.985C127.631 109.027 127.448 108.981 127.299 108.857C127.15 108.733 127.047 108.54 127.012 108.322C126.978 108.104 127.015 107.878 127.116 107.693C127.216 107.509 127.372 107.381 127.548 107.339L137.193 105.015C137.369 104.973 137.552 105.019 137.701 105.143C137.85 105.267 137.953 105.46 137.988 105.678C138.022 105.896 137.985 106.122 137.884 106.307C137.784 106.491 137.628 106.619 137.452 106.661Z" fill="white"/>
<path d="M136.395 109.731L130.891 110.984C130.696 111.028 130.494 110.98 130.33 110.851C130.165 110.721 130.052 110.521 130.014 110.293C129.976 110.066 130.017 109.83 130.128 109.638C130.239 109.446 130.41 109.313 130.605 109.269L136.109 108.016C136.206 107.994 136.305 107.995 136.401 108.017C136.497 108.04 136.589 108.085 136.67 108.149C136.752 108.213 136.821 108.296 136.876 108.391C136.93 108.487 136.967 108.594 136.986 108.707C137.005 108.819 137.005 108.935 136.985 109.048C136.965 109.16 136.927 109.267 136.872 109.362C136.817 109.457 136.747 109.539 136.665 109.602C136.583 109.665 136.492 109.709 136.395 109.731Z" fill="white"/>
<path d="M149 93.4595V98H117V93.4595C117 93.0051 117.07 92.5552 117.205 92.1354C117.34 91.7157 117.539 91.3342 117.789 91.013C118.039 90.6917 118.336 90.4369 118.663 90.2631C118.99 90.0893 119.341 89.9999 119.695 90H146.305C146.659 89.9999 147.01 90.0893 147.337 90.2631C147.664 90.4369 147.961 90.6917 148.211 91.013C148.461 91.3342 148.66 91.7157 148.795 92.1354C148.93 92.5552 149 93.0051 149 93.4595Z" fill="#B3B3B3"/>
<path d="M212.801 98.4246C212.619 97.7232 212.309 97.078 211.893 96.5344C211.478 95.9908 210.967 95.562 210.398 95.2783C209.828 94.9946 209.213 94.8629 208.595 94.8923C207.978 94.9218 207.374 95.1117 206.825 95.4488L170.596 80L169 90.7568L205.114 102.56C205.651 103.618 206.497 104.406 207.49 104.772C208.483 105.139 209.555 105.06 210.503 104.551C211.451 104.041 212.208 103.136 212.632 102.007C213.055 100.878 213.116 99.6031 212.801 98.4246Z" fill="#FFB8B8"/>
<path opacity="0.2" d="M212.801 98.4246C212.619 97.7232 212.309 97.078 211.893 96.5344C211.478 95.9908 210.967 95.562 210.398 95.2783C209.828 94.9946 209.213 94.8629 208.595 94.8923C207.978 94.9218 207.374 95.1117 206.825 95.4488L170.596 80L169 90.7568L205.114 102.56C205.651 103.618 206.497 104.406 207.49 104.772C208.483 105.139 209.555 105.06 210.503 104.551C211.451 104.041 212.208 103.136 212.632 102.007C213.055 100.878 213.116 99.6031 212.801 98.4246Z" fill="black"/>
<path d="M176.874 82.559L173.436 92.6284C173.339 92.9149 173.187 93.1744 172.991 93.3892C172.796 93.604 172.562 93.7691 172.304 93.8733C172.047 93.9774 171.773 94.0181 171.5 93.9926C171.227 93.9672 170.963 93.8761 170.724 93.7256L162.369 88.4533C161.065 87.8838 160.015 86.7577 159.45 85.3217C158.885 83.8858 158.851 82.2572 159.355 80.7931C159.859 79.329 160.861 78.1488 162.14 77.5112C163.419 76.8737 164.872 76.8308 166.179 77.392L175.509 79.7119C175.776 79.7784 176.027 79.9087 176.245 80.0939C176.463 80.279 176.643 80.5147 176.773 80.7849C176.903 81.0551 176.979 81.3535 176.996 81.6596C177.014 81.9657 176.972 82.2725 176.874 82.559Z" fill="#31A05E"/>
<path d="M216.8 109L203 115.992L204.812 123.596C208.311 138.279 209.239 153.576 207.547 168.651L217.636 171L226 147.226L223.073 120.188L216.8 109Z" fill="#31A05E"/>
<path d="M243 144C234.372 144 227.341 151.104 227 160H259C258.659 151.104 251.628 144 243 144Z" fill="#3F3D56"/>
<path d="M235.933 145.721C235.479 104.28 215.045 108.092 215.045 108.092C215.045 108.092 215.427 120.991 215.611 121.392C228.632 149.848 207.142 183.208 179.787 177.071C179.271 176.955 178.776 176.838 178.3 176.719C174.834 175.883 171.774 173.554 169.742 170.205C167.71 166.855 166.859 162.738 167.362 158.69C170.057 133.696 156.654 134.139 156.654 134.139H137.056L126.879 123.559C126.519 123.186 126.086 122.92 125.618 122.784C125.149 122.649 124.658 122.648 124.189 122.782C123.72 122.916 123.286 123.181 122.926 123.553C122.566 123.925 122.29 124.394 122.123 124.918L120.814 129.022C120.814 129.022 101.485 131.348 103.095 153.208H109.071C109.057 153.83 109.078 154.451 109.136 155.069L153.735 154.65C156.349 154.626 158.657 157.072 158.667 160.092C158.67 160.827 158.544 161.555 158.298 162.233C158.051 162.911 157.689 163.524 157.232 164.036C156.776 164.548 156.234 164.949 155.641 165.214C155.047 165.479 154.413 165.603 153.777 165.578L146.587 165.302C144.372 176.697 149.808 184.371 155.798 189.197C161.438 193.674 168.13 196.048 174.974 195.999H194.507C219.877 195.999 224.307 171.348 224.307 171.348C237.596 164.836 235.933 145.721 235.933 145.721Z" fill="#3F3D56"/>
<path d="M241.5 209C253.926 209 264 197.359 264 183C264 168.641 253.926 157 241.5 157C229.074 157 219 168.641 219 183C219 197.359 229.074 209 241.5 209Z" fill="#3F3D56"/>
<path d="M241.5 190C244.538 190 247 187.09 247 183.5C247 179.91 244.538 177 241.5 177C238.462 177 236 179.91 236 183.5C236 187.09 238.462 190 241.5 190Z" fill="white"/>
<path d="M127 209C141.359 209 153 195.569 153 179C153 162.431 141.359 149 127 149C112.641 149 101 162.431 101 179C101 195.569 112.641 209 127 209Z" fill="#3F3D56"/>
<path d="M127 187C130.314 187 133 183.642 133 179.5C133 175.358 130.314 172 127 172C123.686 172 121 175.358 121 179.5C121 183.642 123.686 187 127 187Z" fill="white"/>
<path d="M203.237 118L198.346 102.828C198.091 102.038 197.975 101.197 198.004 100.356C198.034 99.5136 198.208 98.6866 198.518 97.9216C198.827 97.1567 199.265 96.4688 199.807 95.8973C200.349 95.3258 200.985 94.8818 201.677 94.5907L215.698 88.6955C216.916 88.1832 218.211 87.9499 219.508 88.009C220.805 88.0681 222.079 88.4184 223.258 89.0399C224.436 89.6614 225.496 90.5419 226.377 91.6312C227.257 92.7205 227.941 93.9972 228.39 95.3885C228.794 96.6372 229.001 97.9582 229 99.2896C228.995 100.98 228.66 102.648 228.019 104.172C227.379 105.697 226.449 107.039 225.298 108.101C224.466 108.863 223.531 109.465 222.53 109.884L203.237 118Z" fill="#3F3D56"/>
<path d="M228 99.2326C227.999 100.916 227.694 102.577 227.107 104.094C226.52 105.611 225.666 106.946 224.609 108C222.986 107.469 221.476 106.506 220.184 105.178C218.892 103.85 217.848 102.189 217.126 100.31C216.403 98.4313 216.019 96.3798 216.001 94.2982C215.982 92.2167 216.329 90.155 217.017 88.2566C218.339 87.9001 219.708 87.9152 221.025 88.3011C222.341 88.6869 223.571 89.4336 224.625 90.4863C225.678 91.539 226.528 92.871 227.112 94.3845C227.696 95.898 228 97.5546 228 99.2326Z" fill="#31A05E"/>
<path d="M106.5 156C109.538 156 112 152.418 112 148C112 143.582 109.538 140 106.5 140C103.462 140 101 143.582 101 148C101 152.418 103.462 156 106.5 156Z" fill="#31A05E"/>
<path d="M181.001 176H185.744L188 161L181 161L181.001 176Z" fill="#FFB8B8"/>
<path d="M180 174.001L189.772 174H189.772C190.59 174 191.4 174.2 192.156 174.59C192.911 174.979 193.598 175.55 194.176 176.269C194.754 176.989 195.213 177.843 195.526 178.783C195.839 179.723 196 180.73 196 181.747V181.999L180 182L180 174.001Z" fill="#2F2E41"/>
<path d="M186.692 170C186.634 170 186.576 169.997 186.517 169.99L179.616 169.414C179.337 169.385 179.068 169.282 178.829 169.114C178.59 168.946 178.388 168.717 178.238 168.445C178.088 168.174 177.995 167.866 177.965 167.547C177.936 167.227 177.97 166.904 178.067 166.602L187.302 142.807C187.368 142.595 187.395 142.369 187.382 142.145C187.368 141.92 187.314 141.701 187.223 141.502C187.132 141.3 187.004 141.122 186.849 140.981C186.694 140.839 186.515 140.737 186.323 140.681C181.98 139.379 170.838 135.913 161.192 131.857C157.06 130.119 154.457 127.608 153.456 124.393C152.137 120.155 154.089 116.289 154.172 116.127L154.238 116L163.314 116.946L173.154 117.906L194.716 131.165C196.523 132.286 197.896 134.146 198.56 136.374C199.225 138.603 199.133 141.037 198.303 143.192L188.362 168.756C188.218 169.126 187.984 169.441 187.688 169.662C187.391 169.882 187.045 170 186.692 170Z" fill="#2F2E41"/>
<path d="M166 70C171.523 70 176 64.8513 176 58.5C176 52.1487 171.523 47 166 47C160.477 47 156 52.1487 156 58.5C156 64.8513 160.477 70 166 70Z" fill="#FFB8B8"/>
<path d="M178.001 177H183.421L186 163L178 163L178.001 177Z" fill="#FFB8B8"/>
<path d="M177 176L186.772 176H186.772C187.59 176 188.4 176.175 189.156 176.516C189.911 176.857 190.598 177.356 191.176 177.985C191.754 178.615 192.213 179.362 192.526 180.185C192.839 181.007 193 181.889 193 182.779V182.999L177 183L177 176Z" fill="#2F2E41"/>
<path d="M183.96 171C183.903 171 183.846 170.997 183.788 170.99L177.037 170.414C176.764 170.385 176.501 170.282 176.267 170.114C176.033 169.946 175.836 169.717 175.689 169.445C175.543 169.174 175.451 168.866 175.422 168.547C175.393 168.227 175.427 167.904 175.522 167.602L184.557 143.807C184.621 143.595 184.648 143.369 184.634 143.145C184.621 142.92 184.568 142.701 184.479 142.502C184.39 142.3 184.265 142.122 184.114 141.981C183.962 141.839 183.787 141.737 183.599 141.681C179.35 140.379 168.45 136.913 159.014 132.857C154.971 131.119 152.425 128.608 151.446 125.393C150.156 121.155 152.065 117.289 152.147 117.127L152.211 117L161.09 117.946L170.716 118.906L191.81 132.165C193.577 133.286 194.92 135.146 195.57 137.374C196.22 139.603 196.13 142.037 195.318 144.192L185.593 169.756C185.453 170.126 185.224 170.441 184.934 170.662C184.644 170.882 184.305 171 183.96 171Z" fill="#2F2E41"/>
<path d="M167.911 76.1857L157.696 72C157.696 72 151.284 77.8321 154.365 92.3001C155.973 99.7661 155.504 107.647 153.029 114.773C152.731 115.655 152.387 116.514 152 117.345C152 117.345 163.393 133.623 174 121.531L169.875 98.0445C169.875 98.0445 176.357 82.4643 167.911 76.1857Z" fill="#31A05E"/>
<path d="M166.571 69.886C165.185 67.4846 164.091 64.1547 165.617 61.8698C167.123 59.6144 170.093 59.9467 172.4 58.9487C175.612 57.5586 177.476 53.189 176.894 49.2758C176.313 45.3625 173.6 42.1185 170.368 40.7912C167.136 39.4639 163.491 39.8955 160.325 41.424C156.429 43.3056 153.086 46.9455 151.685 51.5562C150.283 56.1669 151.032 61.7029 153.94 65.2468C157.057 69.0463 161.95 70.0588 166.476 69.9974" fill="#2F2E41"/>
<path d="M157.651 49.2124C155.842 50.8768 153.082 50.1375 151.14 48.6768C149.199 47.2161 147.623 45.1361 145.522 43.9908C141.818 41.9718 137.34 43.314 133.736 45.5504C130.131 47.7869 126.936 50.8766 123.128 52.6317C119.32 54.3867 114.461 54.4735 111.578 51.1595C110.869 53.483 110.811 55.9974 111.412 58.3595C112.014 60.7216 113.245 62.8165 114.939 64.3582C116.632 65.9 118.706 66.8136 120.876 66.9744C123.046 67.1352 125.207 66.5353 127.064 65.2566C131.236 62.3843 133.541 56.3617 138.22 54.7763C140.809 53.899 143.59 54.6056 146.207 55.3709C148.824 56.1362 151.553 56.9632 154.194 56.3116C156.835 55.6601 159.305 52.9776 158.969 49.9459L157.651 49.2124Z" fill="#2F2E41"/>
<path d="M212.609 98.5643C212.353 97.8691 211.975 97.2512 211.503 96.7541C211.031 96.257 210.475 95.8927 209.876 95.6871C209.276 95.4814 208.647 95.4393 208.033 95.5637C207.419 95.6881 206.834 95.976 206.32 96.4071L168.47 86L168 97.3322L205.353 103.999C206.001 105.008 206.929 105.691 207.961 105.917C208.993 106.144 210.057 105.9 210.951 105.23C211.846 104.56 212.509 103.511 212.814 102.283C213.12 101.055 213.047 99.7314 212.609 98.5643Z" fill="#FFB8B8"/>
<path d="M175.941 87.0828L173.482 98.2657C173.412 98.5839 173.281 98.8814 173.1 99.138C172.918 99.3946 172.689 99.6043 172.429 99.7527C172.168 99.9011 171.882 99.9848 171.59 99.9981C171.299 100.011 171.008 99.954 170.737 99.8297L161.266 95.4751C159.816 95.0651 158.57 94.0266 157.802 92.5874C157.034 91.1483 156.806 89.426 157.168 87.7986C157.531 86.1711 158.454 84.7714 159.735 83.9066C161.016 83.0418 162.551 82.7825 164.002 83.1856L174.16 84.2663C174.45 84.2973 174.732 84.3983 174.985 84.5624C175.238 84.7265 175.456 84.9497 175.625 85.217C175.794 85.4843 175.91 85.7893 175.964 86.1113C176.019 86.4333 176.011 86.7647 175.941 87.0828Z" fill="#31A05E"/>
<path d="M208.5 107C209.881 107 211 105.433 211 103.5C211 101.567 209.881 100 208.5 100C207.119 100 206 101.567 206 103.5C206 105.433 207.119 107 208.5 107Z" fill="#31A05E"/>
<path d="M300 209.5C300 209.632 299.962 209.759 299.894 209.853C299.826 209.947 299.734 210 299.638 210H0.361882C0.265905 210 0.173858 209.947 0.105992 209.854C0.0381264 209.76 0 209.633 0 209.5C0 209.367 0.0381264 209.24 0.105992 209.146C0.173858 209.053 0.265905 209 0.361882 209H299.638C299.734 209 299.826 209.053 299.894 209.147C299.962 209.241 300 209.368 300 209.5Z" fill="#3F3D56"/>
</svg>
