<svg width="300" height="250" viewBox="0 0 300 250" fill="none" xmlns="http://www.w3.org/2000/svg">
<path d="M244.232 74.6761C245.891 74.5743 247.156 73.8205 247.057 72.9925C246.958 72.1644 245.533 71.5756 243.874 71.6774C242.216 71.7792 240.951 72.533 241.049 73.361C241.148 74.1891 242.573 74.7779 244.232 74.6761Z" fill="white"/>
<path d="M262.897 70.1328C264.556 70.031 265.821 69.2772 265.722 68.4491C265.623 67.6211 264.199 67.0323 262.54 67.1341C260.881 67.2359 259.616 67.9896 259.715 68.8177C259.813 69.6458 261.238 70.2345 262.897 70.1328Z" fill="#3F3D56"/>
<path d="M235.384 64.4581C237.043 64.3563 238.308 63.6025 238.209 62.7744C238.111 61.9464 236.686 61.3576 235.027 61.4594C233.368 61.5612 232.103 62.315 232.202 63.143C232.301 63.9711 233.725 64.5599 235.384 64.4581Z" fill="#FF6584"/>
<path d="M227.555 61.1656C228.269 61.0498 228.66 60.359 228.428 59.6225C228.196 58.886 227.429 58.3828 226.715 58.4986C226.001 58.6143 225.61 59.3052 225.842 60.0417C226.074 60.7782 226.841 61.2814 227.555 61.1656Z" fill="#E6E6E6"/>
<path d="M221.981 53.1724C222.695 53.0566 223.085 52.3657 222.853 51.6293C222.622 50.8928 221.855 50.3896 221.141 50.5054C220.427 50.6211 220.036 51.312 220.268 52.0485C220.5 52.7849 221.267 53.2881 221.981 53.1724Z" fill="#3F3D56"/>
<path d="M248.725 64.3975C249.439 64.2818 249.83 63.5909 249.598 62.8544C249.366 62.118 248.599 61.6148 247.885 61.7306C247.171 61.8463 246.78 62.5372 247.012 63.2737C247.244 64.0101 248.011 64.5133 248.725 64.3975Z" fill="#E6E6E6"/>
<path d="M240.573 69.2537C241.287 69.138 241.677 68.4471 241.446 67.7106C241.214 66.9742 240.447 66.471 239.733 66.5867C239.019 66.7025 238.628 67.3934 238.86 68.1299C239.092 68.8663 239.859 69.3695 240.573 69.2537Z" fill="#FF6584"/>
<path d="M255.414 73.2091C256.128 73.0934 256.519 72.4025 256.287 71.666C256.055 70.9296 255.288 70.4264 254.574 70.5421C253.86 70.6579 253.47 71.3488 253.701 72.0852C253.933 72.8217 254.7 73.3249 255.414 73.2091Z" fill="#3F3D56"/>
<path d="M167.17 12.7586C167.454 11.953 166.377 11.062 164.763 10.7685C163.149 10.4751 161.61 10.8902 161.325 11.6958C161.041 12.5015 162.118 13.3925 163.732 13.6859C165.346 13.9794 166.885 13.5643 167.17 12.7586Z" fill="white"/>
<path d="M147.46 12.6674C147.745 11.8618 146.667 10.9708 145.053 10.6773C143.439 10.3838 141.9 10.799 141.616 11.6046C141.331 12.4102 142.409 13.3013 144.023 13.5948C145.637 13.8882 147.176 13.473 147.46 12.6674Z" fill="#3F3D56"/>
<path d="M170.868 24.4919C171.153 23.6863 170.075 22.7953 168.461 22.5018C166.847 22.2083 165.308 22.6235 165.024 23.4291C164.739 24.2347 165.817 25.1257 167.431 25.4192C169.045 25.7127 170.584 25.2975 170.868 24.4919Z" fill="#FF6584"/>
<path d="M175.463 28.9161C175.58 28.1658 175.085 27.5102 174.357 27.4519C173.63 27.3935 172.945 27.9545 172.828 28.7049C172.712 29.4553 173.207 30.1109 173.934 30.1692C174.661 30.2275 175.346 29.6665 175.463 28.9161Z" fill="#E6E6E6"/>
<path d="M177.083 37.7783C177.2 37.0279 176.705 36.3723 175.978 36.314C175.25 36.2557 174.566 36.8167 174.449 37.5671C174.332 38.3174 174.827 38.973 175.555 39.0313C176.282 39.0897 176.967 38.5286 177.083 37.7783Z" fill="#3F3D56"/>
<path d="M156.933 20.8895C157.05 20.1392 156.555 19.4836 155.828 19.4253C155.1 19.367 154.416 19.928 154.299 20.6783C154.182 21.4287 154.677 22.0843 155.405 22.1426C156.132 22.2009 156.816 21.6399 156.933 20.8895Z" fill="#E6E6E6"/>
<path d="M166.852 18.2159C166.969 17.4655 166.474 16.81 165.747 16.7516C165.019 16.6933 164.335 17.2543 164.218 18.0047C164.101 18.7551 164.596 19.4106 165.323 19.469C166.051 19.5273 166.735 18.9663 166.852 18.2159Z" fill="#FF6584"/>
<path d="M154.633 10.9923C154.75 10.2419 154.255 9.58636 153.527 9.52803C152.8 9.46971 152.115 10.0307 151.998 10.7811C151.881 11.5314 152.376 12.187 153.104 12.2453C153.831 12.3037 154.516 11.7427 154.633 10.9923Z" fill="#3F3D56"/>
<path d="M96.3134 55.8268C94.6682 56.4805 92.9881 57.0345 91.2816 57.4863C89.0275 58.0592 87.7549 58.3248 85.5792 57.4442C85.5028 57.4133 85.4299 57.3827 85.3611 57.3527C81.2373 55.5241 77.7121 52.4848 75.2147 48.6047C72.7173 44.7246 71.3554 40.1711 71.2948 35.4984C71.2839 35.3381 71.2839 35.1696 71.2839 35.0051C71.2817 34.2132 71.318 33.4216 71.3926 32.6335C71.488 31.56 71.6526 30.4944 71.8855 29.4439L71.8638 29.4398C70.1023 27.5614 69.4246 24.9884 69.6493 22.4031C69.8032 20.6503 70.3366 18.9568 71.2093 17.4503C72.082 15.9437 73.2711 14.6634 74.6872 13.7057C76.9064 12.2506 79.4087 11.3295 82.0121 11.0094C82.7112 10.9253 83.4142 10.8828 84.1179 10.882H90.7288C92.0942 10.5486 93.4813 10.3206 94.8788 10.1997H94.8896C108.195 9.04881 118.687 18.2476 117.709 29.4398C117.702 29.4522 117.691 29.4645 117.684 29.4768C117.401 29.9577 117.151 30.414 116.93 30.8496C116.716 31.2566 116.535 31.647 116.379 32.017C115.165 34.8777 120.935 79.2621 118.865 79.9362C117.687 80.3184 112.939 47.2908 113.791 53.5712C114.864 61.4506 102.443 53.4639 96.3134 55.8268Z" fill="#2F2E41"/>
<path d="M116.357 136.061L134.801 177.038L63.8521 169.544L78.6623 130.207L116.357 136.061Z" fill="#FFB6B6"/>
<path d="M153.381 218.217C141.044 222.5 128.042 224.316 115.059 223.57L109.413 214.022C109.413 214.022 109.176 217.578 108.824 223.014C102.643 222.267 96.5434 220.919 90.6041 218.986C79.3405 215.313 68.7822 209.622 58.0796 204.373C55.9118 190.897 55.0984 170.116 67.0832 158.019L131.591 170.346C131.591 170.346 141.941 178.419 139.172 181.311C136.404 184.198 135.975 183.751 137.794 185.648C139.613 187.545 143.544 190.082 143.584 191.741C143.6 192.389 148.012 204.135 153.381 218.217Z" fill="#2F2E41"/>
<path d="M105.092 56.8795L89.5074 58.0135L79.4343 68.1645L75.9064 68.8212C72.7354 69.4108 69.882 71.1935 67.8874 73.8311C65.8928 76.4688 64.8957 79.7781 65.0852 83.1314C65.8109 95.9528 67.4356 115.11 70.8315 121.326C76.0971 130.963 80.4464 127.939 76.0971 130.963C71.7478 133.987 68.8278 131.611 70.8315 136.39C72.8351 141.168 68.1234 147.298 68.1234 147.298L66.2477 149.254L68.2371 150.104L131.626 158.706C131.626 158.706 126.145 133.006 129.572 126.693C133 120.38 141.311 101.296 133.894 93.8289L126.641 67.2129L114.166 63.3758L105.092 56.8795Z" fill="#31A05E"/>
<path d="M199.435 162.36C198.392 162.325 197.369 162.055 196.436 161.567C195.503 161.08 194.683 160.387 194.032 159.536C193.381 158.686 192.915 157.698 192.666 156.641C192.418 155.584 192.392 154.483 192.591 153.415L162.857 132.415L166.405 122.409L201.546 147.621C203.245 148.105 204.715 149.221 205.678 150.76C206.64 152.298 207.028 154.151 206.768 155.968C206.508 157.785 205.617 159.439 204.266 160.617C202.915 161.795 201.196 162.415 199.435 162.36Z" fill="#FFB6B6"/>
<path d="M115.451 65.9559L111.13 67.74L134.179 114.685L181.893 148.603L188.771 136.48L152.45 103.763L137.909 74.68C135.863 70.5871 132.435 67.4302 128.287 65.819C124.139 64.2077 119.566 64.2565 115.451 65.9559Z" fill="#31A05E"/>
<path d="M96.4889 52.7508C105.132 52.7508 112.138 45.444 112.138 36.4305C112.138 27.4171 105.132 20.1102 96.4889 20.1102C87.8459 20.1102 80.8394 27.4171 80.8394 36.4305C80.8394 45.444 87.8459 52.7508 96.4889 52.7508Z" fill="#FFB6B6"/>
<path d="M110.098 29.5291C109.837 29.6727 109.579 29.805 109.318 29.9373C109.047 30.0734 108.775 30.2095 108.499 30.338C103.262 32.8137 98.9961 33.0897 96.4082 29.5291C96.3374 27.6559 95.9331 25.8128 95.2158 24.0938C95.3426 26.0148 94.8571 27.9256 93.8349 29.5291H88.623C83.2553 33.2446 80.5007 36.6578 84.2266 48.8551C84.4694 49.6564 86.133 78.1256 86.6078 80.3141C78.4819 77.0635 71.4723 42.5504 71.2947 33.4563C71.2838 33.3089 71.2838 33.1539 71.2838 33.0027C71.2817 32.2742 71.318 31.5461 71.3926 30.8218C71.4882 29.8329 71.653 28.8526 71.8855 27.8887L71.8638 27.8849C71.037 27.0606 70.4063 26.0463 70.0218 24.9229C69.6373 23.7994 69.5098 22.5979 69.6493 21.414C71.0124 19.5526 72.6993 17.9754 74.6219 16.7648C76.3702 15.882 78.1924 15.1684 80.0658 14.633C80.1129 14.6217 80.1528 14.6104 80.1999 14.599C80.7725 14.4365 81.3597 14.2891 81.9469 14.1606C83.1569 13.896 84.3802 13.7029 85.6111 13.5823C85.7017 13.5785 85.7887 13.5709 85.8685 13.5709C86.3608 13.5713 86.844 13.7096 87.2675 13.9716C87.2711 13.9716 87.2711 13.9754 87.2783 13.9754C87.6852 14.2289 88.0227 14.5874 88.2582 15.0164C88.4937 15.4454 88.6193 15.9304 88.623 16.4246H94.4293C94.6431 16.4246 94.857 16.4322 95.0708 16.4435C103.157 16.7799 109.655 20.3859 110.072 28.6749C110.09 28.9622 110.098 29.2419 110.098 29.5291Z" fill="#2F2E41"/>
<path d="M75.7697 30.1852C81.4638 30.1852 86.0797 25.3714 86.0797 19.4333C86.0797 13.4952 81.4638 8.6814 75.7697 8.6814C70.0757 8.6814 65.4598 13.4952 65.4598 19.4333C65.4598 25.3714 70.0757 30.1852 75.7697 30.1852Z" fill="#2F2E41"/>
<path d="M89.9242 14.4602C88.7529 20.2713 82.9741 23.7469 77.4457 22.3252C74.7908 21.6424 72.5048 19.8878 71.0904 17.4473C69.6761 15.0068 69.2493 12.0804 69.904 9.31172C71.2672 3.5463 77.9767 5.20842 82.3825 1.44675C88.6152 -3.87467 91.5038 6.62343 89.9242 14.4602Z" fill="#2F2E41"/>
<path d="M67.017 176.22C75.804 138.85 93.2145 106.731 122.049 81.5656C123.165 79.6511 124.963 78.2764 127.05 77.7431C129.137 77.2098 131.341 77.5615 133.179 78.7209L201.725 122.064C203.561 123.227 204.879 125.103 205.391 127.279C205.902 129.455 205.565 131.754 204.453 133.671C193.448 172.016 176.964 205.289 149.421 228.325C148.305 230.239 146.507 231.614 144.42 232.147C142.334 232.681 140.13 232.329 138.291 231.17L69.7448 187.827C67.909 186.663 66.5909 184.787 66.0795 182.611C65.5681 180.435 65.9052 178.137 67.017 176.22Z" fill="#F2F2F2"/>
<path opacity="0.2" d="M79.2004 188.813C77.3647 187.65 76.0465 185.774 75.5351 183.598C75.0237 181.422 75.3609 179.123 76.4727 177.206C85.2596 139.837 102.67 107.717 131.504 82.5521C132.243 81.299 133.286 80.2715 134.528 79.5738L133.179 78.7208C131.341 77.5614 129.137 77.2098 127.05 77.7431C124.963 78.2763 123.165 79.6509 122.049 81.5654C93.2146 106.731 75.804 138.85 67.0171 176.219C65.9053 178.137 65.5681 180.435 66.0795 182.611C66.5909 184.787 67.9091 186.663 69.7448 187.827L138.291 231.17C139.511 231.935 140.904 232.351 142.327 232.374C143.751 232.398 145.155 232.028 146.398 231.303L79.2004 188.813Z" fill="black"/>
<path d="M159.588 167.935L113.576 139.023C112.845 138.562 112.319 137.818 112.114 136.953C111.909 136.089 112.042 135.175 112.482 134.412C112.923 133.649 113.636 133.099 114.465 132.884C115.294 132.669 116.171 132.806 116.903 133.265L162.915 162.177C163.644 162.639 164.168 163.383 164.372 164.247C164.576 165.11 164.443 166.023 164.003 166.785C163.563 167.547 162.851 168.096 162.023 168.312C161.196 168.527 160.32 168.392 159.588 167.935Z" fill="white"/>
<path d="M132.821 129.595L122.699 123.234C121.965 122.777 121.436 122.034 121.228 121.169C121.019 120.305 121.149 119.389 121.587 118.624C122.026 117.859 122.739 117.307 123.568 117.09C124.397 116.873 125.275 117.008 126.008 117.465L126.026 117.476L136.148 123.837C136.877 124.298 137.402 125.043 137.606 125.907C137.81 126.77 137.677 127.684 137.237 128.446C136.797 129.208 136.085 129.757 135.257 129.972C134.429 130.188 133.553 130.052 132.821 129.595Z" fill="white"/>
<path d="M152.275 180.592L106.263 151.68C105.532 151.221 105.005 150.477 104.798 149.612C104.592 148.748 104.724 147.833 105.164 147.069C105.604 146.306 106.316 145.756 107.145 145.54C107.974 145.324 108.851 145.46 109.584 145.918L109.59 145.922L155.602 174.834C156.331 175.296 156.855 176.04 157.059 176.904C157.263 177.767 157.13 178.68 156.69 179.442C156.25 180.204 155.538 180.753 154.71 180.969C153.883 181.184 153.007 181.049 152.275 180.592Z" fill="white"/>
<path d="M165.431 113.421C172.853 113.421 178.87 107.146 178.87 99.4056C178.87 91.6653 172.853 85.3905 165.431 85.3905C158.009 85.3905 151.992 91.6653 151.992 99.4056C151.992 107.146 158.009 113.421 165.431 113.421Z" fill="#3F3D56"/>
<path d="M142.266 249.582C158.129 249.582 170.989 236.171 170.989 219.627C170.989 203.083 158.129 189.672 142.266 189.672C126.402 189.672 113.542 203.083 113.542 219.627C113.542 236.171 126.402 249.582 142.266 249.582Z" fill="white"/>
<path d="M142.266 250C136.505 250 130.874 248.219 126.085 244.881C121.295 241.544 117.562 236.8 115.358 231.25C113.154 225.7 112.577 219.593 113.701 213.702C114.824 207.81 117.598 202.398 121.671 198.15C125.744 193.902 130.934 191.009 136.584 189.838C142.233 188.666 148.089 189.267 153.411 191.566C158.733 193.865 163.281 197.758 166.482 202.752C169.682 207.747 171.39 213.62 171.39 219.627C171.381 227.679 168.31 235.4 162.85 241.094C157.39 246.788 149.987 249.991 142.266 250ZM142.266 190.09C136.664 190.09 131.188 191.822 126.53 195.068C121.872 198.313 118.242 202.926 116.098 208.324C113.955 213.721 113.394 219.66 114.487 225.389C115.579 231.119 118.277 236.382 122.238 240.513C126.199 244.644 131.246 247.457 136.74 248.597C142.234 249.736 147.929 249.151 153.105 246.916C158.28 244.68 162.703 240.894 165.816 236.037C168.928 231.179 170.589 225.469 170.589 219.627C170.58 211.796 167.593 204.288 162.284 198.751C156.974 193.213 149.775 190.098 142.266 190.09Z" fill="#3F3D56"/>
<path d="M138.347 235.217C137.851 235.217 137.362 235.097 136.918 234.865C136.475 234.634 136.089 234.298 135.791 233.884L127.955 222.988C127.703 222.638 127.519 222.239 127.415 221.815C127.31 221.391 127.287 220.95 127.346 220.516C127.405 220.083 127.546 219.666 127.76 219.289C127.974 218.912 128.257 218.583 128.592 218.32C128.928 218.058 129.31 217.867 129.717 217.758C130.124 217.65 130.547 217.626 130.963 217.688C131.378 217.75 131.778 217.897 132.139 218.12C132.5 218.343 132.816 218.639 133.067 218.989L138.194 226.117L151.361 205.52C151.594 205.156 151.893 204.843 152.242 204.6C152.591 204.356 152.982 204.187 153.393 204.101C153.805 204.015 154.228 204.014 154.64 204.099C155.052 204.184 155.443 204.353 155.792 204.596C156.141 204.838 156.441 205.15 156.675 205.514C156.908 205.878 157.071 206.286 157.153 206.715C157.235 207.144 157.236 207.586 157.154 208.015C157.073 208.444 156.911 208.852 156.679 209.217L141.006 233.733C140.722 234.177 140.341 234.543 139.894 234.801C139.447 235.059 138.947 235.201 138.436 235.216C138.406 235.217 138.377 235.217 138.347 235.217Z" fill="#31A05E"/>
<path d="M71.2911 176.615C70.2669 176.178 69.3461 175.513 68.5923 174.668C67.8386 173.823 67.2699 172.817 66.9256 171.72C66.5813 170.623 66.4696 169.461 66.5983 168.314C66.7269 167.168 67.0928 166.064 67.6707 165.08L45.5902 132.711L52.6738 124.14L78.6296 162.785C80.1463 163.923 81.2101 165.601 81.6194 167.502C82.0288 169.403 81.7553 171.395 80.8508 173.1C79.9462 174.804 78.4734 176.104 76.7115 176.752C74.9496 177.4 73.021 177.351 71.2911 176.615Z" fill="#FFB6B6"/>
<path d="M71.7984 74.0396C70.6813 73.3542 69.3666 73.1064 68.0901 73.3408C66.8136 73.5751 65.6591 74.2763 64.8336 75.3184L35 118.831L62.648 159.782L73.4668 147.664L56.6376 120.085L79.0037 97.8765C80.8417 93.6774 81.1224 88.917 79.7917 84.5147C78.461 80.1124 75.6132 76.3804 71.7984 74.0396Z" fill="#31A05E"/>
</svg>
