<svg width="300" height="250" viewBox="0 0 300 250" fill="none" xmlns="http://www.w3.org/2000/svg">
<path d="M239.624 26.0135C238.974 28.4512 239.721 32.2895 240.002 34.565C240.303 36.9978 236.142 39.175 233.76 39.3126C233.819 38.5074 233.595 37.7069 233.13 37.0519C233.124 37.8309 232.966 38.601 232.664 39.3175H212.793C210.29 34.5454 208.161 28.0236 210.46 21.2806C210.576 19.9264 211.085 18.6372 211.922 17.5748C212.759 16.5125 213.887 15.7243 215.164 15.3093L226 11.7953C230.273 11.7953 235.516 12.4096 237.878 15.6336C238.923 17.118 239.624 18.8229 239.926 20.6206C240.229 22.4183 240.125 24.262 239.624 26.0135Z" fill="#2F2E41"/>
<path d="M258.65 236.893C259.004 236.906 259.354 236.809 259.652 236.614C259.949 236.419 260.18 236.136 260.314 235.803C260.448 235.47 260.477 235.104 260.398 234.754C260.32 234.404 260.137 234.087 259.874 233.845C259.829 233.67 259.797 233.545 259.751 233.369C260.082 232.494 260.663 231.739 261.42 231.2C262.177 230.661 263.076 230.364 264.001 230.346C264.925 230.329 265.834 230.591 266.611 231.1C267.388 231.609 267.997 232.342 268.36 233.204C270.454 238.043 273.153 243.047 271.884 248.411C280.418 229.624 277.237 206.387 264.216 190.516C260.64 188.565 257.723 185.064 256.934 180.975C258.7 181.562 260.882 180.09 259.54 178.223C258.96 177.511 258.373 176.804 257.793 176.091C264.414 168.808 272.489 180.075 265.219 189.888C267.656 192.925 269.773 196.211 271.536 199.693C271.101 195.982 271.543 192.218 272.824 188.713C274.125 185.446 276.595 182.68 278.766 179.845C281.406 176.391 286.921 177.919 287.321 182.267C284.863 183.112 284.577 186.725 287.402 187.192C286.739 195.293 281.591 202.781 274.437 206.401C277.162 213.921 278.274 221.944 277.698 229.935C278.879 220.591 288.743 218.231 295.617 214.456C296.054 214.166 296.565 214.011 297.088 214.011C297.61 214.01 298.121 214.163 298.559 214.452C298.997 214.74 299.343 215.152 299.554 215.636C299.765 216.12 299.832 216.656 299.748 217.179C298.798 217.581 297.89 218.078 297.037 218.662C296.637 218.94 296.332 219.336 296.163 219.796C295.995 220.257 295.971 220.759 296.095 221.234C296.219 221.709 296.485 222.133 296.856 222.448C297.227 222.764 297.686 222.956 298.169 222.997C294.768 231.764 285.82 237.716 276.572 237.772C275.72 241.694 274.468 245.516 272.836 249.175L259.111 249.307C259.06 249.153 259.014 248.994 258.969 248.84C260.24 248.909 261.514 248.819 262.764 248.574C259.365 244.574 256.746 242.542 258.65 236.893L258.65 236.893Z" fill="#F2F2F2"/>
<path d="M230.323 239.69H224.969L222.421 218.766H230.323V239.69Z" fill="#FFB6B6"/>
<path d="M233.148 249.089H229.309L228.624 245.416L226.868 249.089H216.686C216.198 249.089 215.722 248.931 215.329 248.638C214.936 248.345 214.646 247.932 214.5 247.46C214.355 246.988 214.363 246.481 214.522 246.013C214.681 245.546 214.984 245.142 215.385 244.861L223.517 239.171V235.458L232.07 235.975L233.148 249.089Z" fill="#2F2E41"/>
<path d="M238.726 201.793L234.967 205.656L218.474 192.804L224.021 187.103L238.726 201.793Z" fill="#FFB6B6"/>
<path d="M247.315 206.353L244.619 209.123L241.557 207.039L242.906 210.884L235.757 218.231C235.415 218.584 234.97 218.816 234.488 218.894C234.006 218.972 233.512 218.891 233.078 218.665C232.644 218.438 232.293 218.077 232.077 217.634C231.86 217.19 231.788 216.689 231.873 216.202L233.583 206.339L230.973 203.732L237.341 197.924L247.315 206.353Z" fill="#2F2E41"/>
<path d="M195.901 88.5958L212.094 62.4895C212.777 61.3814 213.003 60.0457 212.722 58.7707C212.442 57.4956 211.678 56.3834 210.595 55.6741C210.035 55.3071 209.407 55.0596 208.749 54.9466C208.092 54.8336 207.418 54.8575 206.77 55.0168C206.122 55.1761 205.513 55.4674 204.979 55.8732C204.446 56.2789 204 56.7904 203.668 57.3766L187.667 85.0171L177.246 101.397C176.379 101.244 175.486 101.365 174.689 101.743C173.892 102.122 173.23 102.74 172.792 103.513C172.353 104.286 172.161 105.178 172.24 106.066C172.319 106.954 172.666 107.796 173.234 108.478C173.801 109.159 174.563 109.647 175.413 109.875C176.264 110.103 177.164 110.059 177.99 109.751C178.816 109.443 179.528 108.885 180.03 108.152C180.532 107.419 180.799 106.548 180.795 105.656L195.901 88.5958Z" fill="#FFB6B6"/>
<path d="M211.162 69.3169L212.527 69.056C212.343 68.7165 212.266 68.3281 212.307 67.943C212.348 67.558 212.504 67.1948 212.754 66.9023C213.005 66.6099 213.338 66.4022 213.708 66.3072C214.079 66.2122 214.469 66.2345 214.826 66.3711C213.181 64.6327 213.98 61.7704 215.039 59.6138C215.803 58.055 216.663 56.5147 217.038 54.8157C217.606 52.2364 216.873 49.1146 213.478 48.497C212.09 48.277 210.671 48.5683 209.477 49.3181C207.343 50.5955 206.863 50.0394 205.517 52.0957L204.75 53.5404C203.764 55.1045 202.589 56.5365 201.25 57.8026C200.293 58.7687 199.521 59.9068 198.975 61.1589C198.903 61.3139 198.797 61.45 198.664 61.5565C198.139 61.9678 197.426 61.9883 196.768 62.0759C195.939 62.1864 194.99 62.5423 195.011 63.5848C195.023 63.834 195.086 64.0779 195.195 64.3014C195.305 64.5248 195.459 64.7229 195.648 64.8832C199.15 67.9885 203.248 70.3265 207.684 71.7501C208.67 72.0657 209.777 72.3269 210.704 71.8639C211.631 71.4009 212.029 69.8871 211.162 69.3169Z" fill="#31A05E"/>
<path d="M231.708 118.936L200.182 118.444L199.212 111.072L202.122 94.3621H226.858L231.708 118.936Z" fill="#FFB6B6"/>
<path d="M164.29 138.594H41.5784C38.6208 138.591 35.7853 137.399 33.6939 135.28C31.6026 133.161 30.4262 130.287 30.4229 127.291V56.0275C30.4262 53.0306 31.6026 50.1574 33.694 48.0383C35.7853 45.9191 38.6208 44.7271 41.5784 44.7237H164.29C167.247 44.7271 170.083 45.9191 172.174 48.0383C174.266 50.1574 175.442 53.0306 175.445 56.0275V127.291C175.442 130.287 174.266 133.161 172.174 135.28C170.083 137.399 167.247 138.591 164.29 138.594Z" fill="white"/>
<path d="M164.29 138.594H41.5784C38.6208 138.591 35.7853 137.399 33.6939 135.28C31.6026 133.161 30.4262 130.287 30.4229 127.291V56.0275C30.4262 53.0306 31.6026 50.1574 33.694 48.0383C35.7853 45.9191 38.6208 44.7271 41.5784 44.7237H164.29C167.247 44.7271 170.083 45.9191 172.174 48.0383C174.266 50.1574 175.442 53.0306 175.445 56.0275V127.291C175.442 130.287 174.266 133.161 172.174 135.28C170.083 137.399 167.247 138.591 164.29 138.594ZM41.5784 45.7066C38.878 45.7097 36.289 46.7981 34.3795 48.7329C32.47 50.6678 31.3959 53.2912 31.3929 56.0275V127.291C31.396 130.027 32.4701 132.65 34.3796 134.585C36.2891 136.52 38.878 137.608 41.5784 137.611H164.29C166.99 137.608 169.579 136.52 171.489 134.585C173.398 132.65 174.472 130.027 174.475 127.291V56.0275C174.472 53.2912 173.398 50.6678 171.489 48.7329C169.579 46.7981 166.99 45.7097 164.29 45.7066H41.5784Z" fill="#E6E6E6"/>
<path d="M174.476 96.4947H30.9075C30.7789 96.4947 30.6555 96.443 30.5645 96.3508C30.4736 96.2586 30.4225 96.1336 30.4225 96.0033C30.4225 95.8729 30.4736 95.7479 30.5645 95.6558C30.6555 95.5636 30.7789 95.5118 30.9075 95.5118H174.476C174.604 95.5118 174.728 95.5636 174.819 95.6558C174.91 95.7479 174.961 95.8729 174.961 96.0033C174.961 96.1336 174.91 96.2586 174.819 96.3508C174.728 96.443 174.604 96.4947 174.476 96.4947Z" fill="#E6E6E6"/>
<path d="M163.805 23.099C166.216 23.099 168.17 21.1187 168.17 18.6758C168.17 16.2329 166.216 14.2526 163.805 14.2526C161.394 14.2526 159.44 16.2329 159.44 18.6758C159.44 21.1187 161.394 23.099 163.805 23.099Z" fill="#F2F2F2"/>
<path d="M4.36523 93.5266C6.77608 93.5266 8.73046 91.5463 8.73046 89.1034C8.73046 86.6605 6.77608 84.6802 4.36523 84.6802C1.95438 84.6802 0 86.6605 0 89.1034C0 91.5463 1.95438 93.5266 4.36523 93.5266Z" fill="#F2F2F2"/>
<path d="M94.095 169.213C96.5058 169.213 98.4602 167.233 98.4602 164.79C98.4602 162.347 96.5058 160.366 94.095 160.366C91.6841 160.366 89.7297 162.347 89.7297 164.79C89.7297 167.233 91.6841 169.213 94.095 169.213Z" fill="#F2F2F2"/>
<path d="M67.7316 118.1H52.5774C52.4488 118.1 52.3254 118.048 52.2345 117.956C52.1435 117.864 52.0924 117.739 52.0924 117.609C52.0924 117.478 52.1435 117.353 52.2345 117.261C52.3254 117.169 52.4488 117.117 52.5774 117.117H67.7316C67.8603 117.117 67.9836 117.169 68.0746 117.261C68.1656 117.353 68.2167 117.478 68.2167 117.609C68.2167 117.739 68.1656 117.864 68.0746 117.956C67.9836 118.048 67.8603 118.1 67.7316 118.1Z" fill="#CCCCCC"/>
<path d="M67.7316 125.964H52.5774C52.4488 125.964 52.3254 125.912 52.2345 125.82C52.1435 125.727 52.0924 125.602 52.0924 125.472C52.0924 125.342 52.1435 125.217 52.2345 125.125C52.3254 125.032 52.4488 124.981 52.5774 124.981H67.7316C67.8603 124.981 67.9836 125.032 68.0746 125.125C68.1656 125.217 68.2167 125.342 68.2167 125.472C68.2167 125.602 68.1656 125.727 68.0746 125.82C67.9836 125.912 67.8603 125.964 67.7316 125.964Z" fill="#CCCCCC"/>
<path d="M150.671 118.1H135.517C135.388 118.1 135.265 118.048 135.174 117.956C135.083 117.864 135.032 117.739 135.032 117.609C135.032 117.478 135.083 117.353 135.174 117.261C135.265 117.169 135.388 117.117 135.517 117.117H150.671C150.8 117.117 150.923 117.169 151.014 117.261C151.105 117.353 151.156 117.478 151.156 117.609C151.156 117.739 151.105 117.864 151.014 117.956C150.923 118.048 150.8 118.1 150.671 118.1Z" fill="#CCCCCC"/>
<path d="M150.671 125.964H135.517C135.388 125.964 135.265 125.912 135.174 125.82C135.083 125.727 135.032 125.602 135.032 125.472C135.032 125.342 135.083 125.217 135.174 125.125C135.265 125.032 135.388 124.981 135.517 124.981H150.671C150.8 124.981 150.923 125.032 151.014 125.125C151.105 125.217 151.156 125.342 151.156 125.472C151.156 125.602 151.105 125.727 151.014 125.82C150.923 125.912 150.8 125.964 150.671 125.964Z" fill="#CCCCCC"/>
<path d="M123.024 118.1H107.87C107.742 118.1 107.618 118.048 107.527 117.956C107.436 117.864 107.385 117.739 107.385 117.609C107.385 117.478 107.436 117.353 107.527 117.261C107.618 117.169 107.742 117.117 107.87 117.117H123.024C123.153 117.117 123.277 117.169 123.367 117.261C123.458 117.353 123.51 117.478 123.51 117.609C123.51 117.739 123.458 117.864 123.367 117.956C123.277 118.048 123.153 118.1 123.024 118.1Z" fill="#CCCCCC"/>
<path d="M123.024 125.964H107.87C107.742 125.964 107.618 125.912 107.527 125.82C107.436 125.727 107.385 125.602 107.385 125.472C107.385 125.342 107.436 125.217 107.527 125.125C107.618 125.032 107.742 124.981 107.87 124.981H123.024C123.153 124.981 123.277 125.032 123.367 125.125C123.458 125.217 123.51 125.342 123.51 125.472C123.51 125.602 123.458 125.727 123.367 125.82C123.277 125.912 123.153 125.964 123.024 125.964Z" fill="#CCCCCC"/>
<path d="M95.3781 118.1H80.2239C80.0953 118.1 79.9719 118.048 79.8809 117.956C79.79 117.864 79.7389 117.739 79.7389 117.609C79.7389 117.478 79.79 117.353 79.8809 117.261C79.9719 117.169 80.0953 117.117 80.2239 117.117H95.3781C95.5068 117.117 95.6301 117.169 95.7211 117.261C95.812 117.353 95.8631 117.478 95.8631 117.609C95.8631 117.739 95.812 117.864 95.7211 117.956C95.6301 118.048 95.5068 118.1 95.3781 118.1Z" fill="#CCCCCC"/>
<path d="M95.3781 125.964H80.2239C80.0953 125.964 79.9719 125.912 79.8809 125.82C79.79 125.727 79.7389 125.602 79.7389 125.472C79.7389 125.342 79.79 125.217 79.8809 125.125C79.9719 125.032 80.0953 124.981 80.2239 124.981H95.3781C95.5068 124.981 95.6301 125.032 95.7211 125.125C95.812 125.217 95.8631 125.342 95.8631 125.472C95.8631 125.602 95.812 125.727 95.7211 125.82C95.6301 125.912 95.5068 125.964 95.3781 125.964Z" fill="#CCCCCC"/>
<path d="M199.212 110.581L198.242 123.85L179.94 157.07C179.061 158.549 178.676 160.275 178.841 161.994C179.006 163.712 179.712 165.331 180.856 166.611L209.556 192.962C209.556 192.962 215.198 193.149 214.723 195.852C214.248 198.554 217.263 198.426 217.263 198.426L220.657 200.91L222.493 186.758C216.323 172.798 207.172 168.539 199.212 162.099C199.212 162.099 202.569 161.088 201.86 159.916C201.152 158.745 203.376 158.667 203.376 158.667C203.376 158.667 204.852 158.465 204.942 157.376C205.032 156.287 206.463 156.123 206.463 156.123L214.493 147.932L235.589 146.949C235.589 146.949 244.516 124.288 229.768 109.598L199.212 110.581Z" fill="#2F2E41"/>
<path d="M214.54 141.778L221.523 226.076L231.808 225.445L235.588 146.949L214.54 141.778Z" fill="#2F2E41"/>
<path d="M215.041 41.2321L226.815 40.6176L232.283 49.3731C232.283 49.3731 242.572 51.1161 241.859 63.4013C241.145 75.6865 229.34 86.4668 229.34 86.4668L229.845 92.8644L228.968 95.4019L229.081 96.8267L230.276 98.3357L230.399 99.8962L229.34 102.365L229.768 105.666C229.768 105.666 219.116 107.809 213.529 103.543C207.942 99.2768 199.697 101.734 199.697 101.734L199.386 97.668L201.002 95.4727L200.1 92.6094L201.456 89.8553L202.164 81.1072C202.164 81.1072 194.424 69.3251 203.309 60.4511L206.875 54.3085L210.865 49.3759L215.041 41.2321Z" fill="#31A05E"/>
<path d="M243.911 94.5118L243.044 63.6896C243.004 62.3839 242.458 61.1467 241.526 60.2449C240.593 59.3432 239.347 58.8492 238.058 58.8697C237.391 58.8802 236.734 59.0283 236.125 59.3049C235.517 59.5814 234.97 59.9807 234.519 60.4783C234.067 60.9758 233.721 61.5614 233.5 62.1991C233.279 62.8368 233.189 63.5135 233.235 64.1877L235.104 96.1764L235.43 115.662C234.626 116.023 233.95 116.627 233.495 117.39C233.041 118.154 232.829 119.041 232.889 119.931C232.949 120.82 233.278 121.67 233.831 122.363C234.385 123.057 235.135 123.562 235.981 123.808C236.827 124.054 237.727 124.031 238.559 123.741C239.392 123.451 240.116 122.908 240.633 122.187C241.15 121.465 241.436 120.6 241.451 119.708C241.466 118.817 241.21 117.942 240.717 117.203L243.911 94.5118Z" fill="#FFB6B6"/>
<path d="M246.016 69.8896C246.239 69.6606 246.381 69.3639 246.421 69.0451C246.461 68.7263 246.396 68.403 246.238 68.1248C246.048 67.7779 245.97 67.3796 246.015 66.9856C246.024 66.9095 246.038 66.8341 246.058 66.7599C246.184 66.3159 246.203 65.8474 246.113 65.3943C246.023 64.9413 245.826 64.517 245.539 64.1576C244.578 62.9884 244.114 61.2184 243.914 59.6406C243.694 57.914 243.563 56.1495 242.942 54.5264C242.046 52.185 239.905 50.0984 236.982 51.0971C235.746 51.5414 234.698 52.404 234.016 53.5395C232.559 55.8945 232.543 58.7419 232.553 61.466L232.029 60.3896C232.092 63.3648 231.561 66.3222 230.469 69.0844C231.12 68.9563 231.581 69.8432 231.37 70.4808C231.16 71.1185 230.578 71.5375 230.079 71.9811C229.45 72.5402 228.857 73.3706 229.447 74.225C229.593 74.4254 229.78 74.5928 229.993 74.7168C230.207 74.8408 230.444 74.9187 230.688 74.9455C235.303 75.5535 239.992 75.1878 244.461 73.8714C245.453 73.5785 246.517 73.1717 247.033 72.2645C247.55 71.3573 247.05 69.8751 246.016 69.8896Z" fill="#31A05E"/>
<path d="M221.523 38.8261C227.684 38.8261 232.678 33.7652 232.678 27.5223C232.678 21.2794 227.684 16.2185 221.523 16.2185C215.362 16.2185 210.367 21.2794 210.367 27.5223C210.367 33.7652 215.362 38.8261 221.523 38.8261Z" fill="#FFB6B6"/>
<path d="M105.888 26.3613C113.072 26.3613 118.896 20.4601 118.896 13.1807C118.896 5.90118 113.072 0 105.888 0C98.7042 0 92.8804 5.90118 92.8804 13.1807C92.8804 20.4601 98.7042 26.3613 105.888 26.3613Z" fill="#31A05E"/>
<path d="M105.431 18.468C105.256 18.468 105.084 18.4268 104.928 18.3477C104.772 18.2685 104.636 18.1536 104.531 18.0121L101.773 14.2858C101.684 14.1661 101.62 14.0298 101.583 13.8847C101.546 13.7396 101.538 13.5886 101.558 13.4403C101.579 13.292 101.628 13.1492 101.704 13.0203C101.779 12.8914 101.879 12.7787 101.997 12.6888C102.115 12.5989 102.25 12.5336 102.393 12.4965C102.536 12.4594 102.685 12.4512 102.832 12.4726C102.978 12.4939 103.119 12.5443 103.246 12.6208C103.373 12.6973 103.484 12.7985 103.573 12.9185L105.377 15.3561L110.011 8.31227C110.177 8.06144 110.434 7.88748 110.726 7.82856C111.019 7.76965 111.322 7.8306 111.57 7.99803C111.818 8.16546 111.99 8.4257 112.048 8.72162C112.107 9.01755 112.048 9.32498 111.883 9.57644L106.367 17.9605C106.267 18.1122 106.133 18.2373 105.975 18.3256C105.818 18.4138 105.642 18.4625 105.462 18.4676L105.431 18.468Z" fill="white"/>
<path d="M130.797 50.83H75.071C73.7134 50.83 72.4115 50.2835 71.4516 49.3108C70.4917 48.3382 69.9524 47.0189 69.9524 45.6434C69.9524 44.2678 70.4917 42.9486 71.4516 41.9759C72.4115 41.0032 73.7134 40.4568 75.071 40.4568H130.797C131.47 40.4561 132.136 40.5898 132.758 40.8501C133.379 41.1105 133.944 41.4924 134.42 41.9741C134.896 42.4558 135.273 43.0278 135.531 43.6574C135.788 44.287 135.921 44.9618 135.921 45.6434C135.921 46.3249 135.788 46.9998 135.531 47.6294C135.273 48.259 134.896 48.8309 134.42 49.3126C133.944 49.7943 133.379 50.1763 132.758 50.4366C132.136 50.697 131.47 50.8306 130.797 50.83Z" fill="#31A05E"/>
<path d="M299.426 249.849L175.571 250C175.418 249.999 175.272 249.937 175.164 249.827C175.057 249.718 174.996 249.569 174.996 249.415C174.996 249.26 175.057 249.112 175.164 249.002C175.272 248.893 175.418 248.831 175.571 248.83L299.426 248.679C299.578 248.679 299.724 248.741 299.832 248.851C299.94 248.961 300 249.109 300 249.264C300 249.418 299.94 249.567 299.832 249.677C299.724 249.786 299.578 249.848 299.426 249.849Z" fill="#CACACA"/>
<path d="M235.589 24.5735V27.0308H225.937C226.035 26.5564 226.035 26.0666 225.937 25.5922C225.84 25.1177 225.646 24.6688 225.369 24.2737C225.361 25.2354 225.125 26.1811 224.68 27.0308C219.099 28.7031 214.415 28.671 210.576 27.0308C210.006 27.0308 209.46 26.8014 209.057 26.393C208.654 25.9846 208.427 25.4307 208.427 24.8532C208.427 17.319 214.288 10.9706 221.722 10.8153C223.529 10.7765 225.326 11.1037 227.006 11.7778C228.687 12.4518 230.218 13.459 231.51 14.7404C232.801 16.0219 233.827 17.5517 234.528 19.2402C235.228 20.9287 235.589 22.7419 235.589 24.5735Z" fill="#2F2E41"/>
<path d="M107.542 66.8398H88.1409C87.6264 66.8398 87.1329 66.6327 86.769 66.264C86.4052 65.8954 86.2008 65.3953 86.2008 64.874C86.2008 64.3526 86.4052 63.8525 86.769 63.4839C87.1329 63.1152 87.6264 62.9081 88.1409 62.9081H107.542C108.056 62.9081 108.55 63.1152 108.914 63.4839C109.278 63.8525 109.482 64.3526 109.482 64.874C109.482 65.3953 109.278 65.8954 108.914 66.264C108.55 66.6327 108.056 66.8398 107.542 66.8398Z" fill="#CCCCCC"/>
<path d="M112.392 108.762H92.9911C92.4766 108.762 91.9831 108.555 91.6193 108.186C91.2554 107.818 91.051 107.318 91.051 106.796C91.051 106.275 91.2554 105.775 91.6193 105.406C91.9831 105.038 92.4766 104.83 92.9911 104.83H112.392C112.907 104.83 113.4 105.038 113.764 105.406C114.128 105.775 114.332 106.275 114.332 106.796C114.332 107.318 114.128 107.818 113.764 108.186C113.4 108.555 112.907 108.762 112.392 108.762Z" fill="#CCCCCC"/>
<path d="M149.254 77.6522H87.6559C87.1414 77.6522 86.6479 77.445 86.2841 77.0764C85.9202 76.7077 85.7158 76.2077 85.7158 75.6863C85.7158 75.1649 85.9202 74.6649 86.2841 74.2962C86.6479 73.9275 87.1414 73.7204 87.6559 73.7204H149.254C149.769 73.7204 150.262 73.9275 150.626 74.2962C150.99 74.6649 151.194 75.1649 151.194 75.6863C151.194 76.2077 150.99 76.7077 150.626 77.0764C150.262 77.445 149.769 77.6522 149.254 77.6522Z" fill="#CCCCCC"/>
<path d="M65.1003 83.4608C72.2843 83.4608 78.1081 77.5596 78.1081 70.2801C78.1081 63.0006 72.2843 57.0994 65.1003 57.0994C57.9162 57.0994 52.0924 63.0006 52.0924 70.2801C52.0924 77.5596 57.9162 83.4608 65.1003 83.4608Z" fill="#E6E6E6"/>
</svg>
