<svg width="38" height="31" viewBox="0 0 38 31" fill="none" xmlns="http://www.w3.org/2000/svg">
<path d="M33.3229 10.1902H12.0326C10.9636 10.1902 10.0971 11.0856 10.0971 12.1902C10.0971 13.2948 10.9636 14.1902 12.0326 14.1902H33.3229C34.3918 14.1902 35.2584 13.2948 35.2584 12.1902C35.2584 11.0856 34.3918 10.1902 33.3229 10.1902Z" fill="white"/>
<path d="M35.2584 26.1902H10.0971C9.02814 26.1902 8.16159 27.0856 8.16159 28.1902C8.16159 29.2948 9.02814 30.1902 10.0971 30.1902H35.2584C36.3273 30.1902 37.1938 29.2948 37.1938 28.1902C37.1938 27.0856 36.3273 26.1902 35.2584 26.1902Z" fill="white"/>
<path d="M11.9351 10.209C12.9982 10.3245 13.7694 11.3086 13.6576 12.4071L12.052 28.1926C11.9403 29.2911 10.9879 30.088 9.92485 29.9726C8.86177 29.8571 8.09055 28.873 8.20229 27.7745L9.80788 11.989C9.91962 10.8905 10.872 10.0936 11.9351 10.209Z" fill="white"/>
<path d="M35.3171 30.1093C34.2541 30.2248 33.3016 29.4278 33.1899 28.3293L31.5722 12.4247C31.4605 11.3262 32.2317 10.3421 33.2947 10.2266L33.4444 10.2104C34.5075 10.0949 35.4599 10.8918 35.5716 11.9903L37.1893 27.895C37.3011 28.9935 36.5298 29.9776 35.4667 30.0931L35.3171 30.1093Z" fill="white"/>
<path d="M28.8064 19C28.0048 19 27.3548 18.3284 27.3548 17.5V9.38385C27.3548 8.80697 27.675 8.2812 28.1783 8.03157C29.142 7.5536 30.2581 8.27933 30.2581 9.38385V17.5C30.2581 18.3284 29.6081 19 28.8064 19Z" fill="white"/>
<path d="M16.2258 19C15.4241 19 14.7742 18.3284 14.7742 17.5V10.5684C14.7742 9.4203 15.9714 8.69782 16.939 9.26188C17.3952 9.52781 17.6774 10.0271 17.6774 10.5684V17.5C17.6774 18.3284 17.0275 19 16.2258 19Z" fill="white"/>
<path d="M28.8064 9C28.8064 10.1204 28.7705 10.8138 28.6584 11.2914C28.5652 11.688 28.4508 11.8089 28.312 11.903C28.0892 12.0543 27.6265 12.2334 26.6259 12.3494C25.6481 12.4628 24.3285 12.5 22.5161 12.5C20.5805 12.5 19.2003 12.4627 18.1988 12.349C17.1665 12.2319 16.7459 12.0517 16.5726 11.9267C16.4964 11.8718 16.3984 11.7962 16.3226 11.3724C16.2314 10.8632 16.2258 10.1593 16.2258 9C16.2258 5.41015 19.042 2.5 22.5161 2.5C25.9902 2.5 28.8064 5.41015 28.8064 9Z" stroke="white" stroke-width="3"/>
<rect y="5" width="13" height="3" rx="1.5" fill="white"/>
<rect x="5" y="13" width="13" height="3" rx="1.5" transform="rotate(-90 5 13)" fill="white"/>
</svg>
