<svg width="30" height="25" viewBox="0 0 30 25" fill="none" xmlns="http://www.w3.org/2000/svg">
<g clip-path="url(#clip0_404_89)">
<path d="M27.5 0H2.5C1.11929 0 0 1.11929 0 2.5C0 3.88071 1.11929 5 2.5 5H27.5C28.8807 5 30 3.88071 30 2.5C30 1.11929 28.8807 0 27.5 0Z" fill="#3A3A3A"/>
<path d="M17.5 10H2.5C1.11929 10 0 11.1193 0 12.5C0 13.8807 1.11929 15 2.5 15H17.5C18.8807 15 20 13.8807 20 12.5C20 11.1193 18.8807 10 17.5 10Z" fill="#3A3A3A"/>
<path d="M7.5 20H2.5C1.11929 20 0 21.1193 0 22.5C0 23.8807 1.11929 25 2.5 25H7.5C8.88071 25 10 23.8807 10 22.5C10 21.1193 8.88071 20 7.5 20Z" fill="#3A3A3A"/>
</g>
<defs>
<clipPath id="clip0_404_89">
<rect width="30" height="25" fill="white"/>
</clipPath>
</defs>
</svg>
