<svg width="30" height="30" viewBox="0 0 30 30" fill="none" xmlns="http://www.w3.org/2000/svg">
<path d="M25.3229 9.19019H4.03259C2.96365 9.19019 2.09711 10.0856 2.09711 11.1902C2.09711 12.2948 2.96365 13.1902 4.03259 13.1902H25.3229C26.3919 13.1902 27.2584 12.2948 27.2584 11.1902C27.2584 10.0856 26.3919 9.19019 25.3229 9.19019Z" fill="#3A3A3A"/>
<path d="M27.2584 25.1902H2.09711C1.02817 25.1902 0.161621 26.0856 0.161621 27.1902C0.161621 28.2948 1.02817 29.1902 2.09711 29.1902H27.2584C28.3273 29.1902 29.1939 28.2948 29.1939 27.1902C29.1939 26.0856 28.3273 25.1902 27.2584 25.1902Z" fill="#3A3A3A"/>
<path d="M3.93508 9.20899C4.99816 9.32445 5.76938 10.3086 5.65765 11.4071L4.05205 27.1926C3.94031 28.2911 2.98794 29.088 1.92485 28.9726C0.861773 28.8571 0.0905529 27.873 0.202288 26.7745L1.80788 10.989C1.91962 9.89046 2.872 9.09353 3.93508 9.20899Z" fill="#3A3A3A"/>
<path d="M27.3171 29.1093C26.2541 29.2248 25.3016 28.4278 25.1899 27.3293L23.5722 11.4247C23.4605 10.3262 24.2317 9.34205 25.2947 9.22659L25.4444 9.21034C26.5075 9.09488 27.4599 9.89181 27.5716 10.9903L29.1893 26.895C29.3011 27.9935 28.5298 28.9776 27.4667 29.0931L27.3171 29.1093Z" fill="#3A3A3A"/>
<path d="M20.8065 18C20.0048 18 19.3549 17.3284 19.3549 16.5V8.38381C19.3549 7.80693 19.675 7.28116 20.1783 7.03153C21.142 6.55356 22.2581 7.27929 22.2581 8.38381V16.5C22.2581 17.3284 21.6081 18 20.8065 18Z" fill="#3A3A3A"/>
<path d="M8.22578 18C7.42408 18 6.77417 17.3284 6.77417 16.5V9.56835C6.77417 8.4203 7.97133 7.69782 8.93899 8.26188C9.39521 8.52781 9.6774 9.02709 9.6774 9.56835V16.5C9.6774 17.3284 9.02749 18 8.22578 18Z" fill="#3A3A3A"/>
<path d="M20.8065 8C20.8065 9.12041 20.7706 9.81381 20.6584 10.2914C20.5652 10.688 20.4508 10.8089 20.3121 10.903C20.0892 11.0543 19.6265 11.2334 18.626 11.3494C17.6482 11.4628 16.3285 11.5 14.5162 11.5C12.5806 11.5 11.2003 11.4627 10.1989 11.349C9.1665 11.2319 8.74595 11.0517 8.57258 10.9267C8.49639 10.8718 8.39844 10.7962 8.32259 10.3724C8.23144 9.86319 8.22583 9.15931 8.22583 8C8.22583 4.41015 11.0421 1.5 14.5162 1.5C17.9902 1.5 20.8065 4.41015 20.8065 8Z" stroke="#3A3A3A" stroke-width="3"/>
</svg>
