<svg width="32" height="50" viewBox="0 0 32 50" fill="none" xmlns="http://www.w3.org/2000/svg">
<path d="M15.6357 50C7.00172 50 0 42.6546 0 33.5911C0 23.11 14.0464 1.15979 14.1753 0.945018C14.3471 0.687286 14.7766 0 15.5498 0H15.7217C16.4519 0 16.8385 0.386598 17.0533 0.730241C17.1821 0.945018 31.2285 23.11 31.1856 33.634C31.1856 42.6546 24.1839 50 15.6357 50ZM15.6787 1.76117C15.6357 1.80412 15.6357 1.84708 15.5928 1.89003C15.4639 2.10481 1.71821 23.7543 1.71821 33.5911C1.71821 41.7096 7.94674 48.2818 15.5928 48.2818H15.6357C23.2818 48.2818 29.4674 41.7096 29.5103 33.634C29.5103 25.3866 19.6306 7.94674 15.6787 1.76117Z" fill="#31A05E"/>
<path d="M8.29079 40.163C7.9901 40.163 7.64646 39.9912 7.5176 39.6905C6.52962 37.5857 6.01416 35.3091 6.01416 32.9466C6.01416 27.2335 10.4815 17.8263 14.2616 10.9534C14.4764 10.5239 14.9918 10.395 15.4214 10.6098C15.8509 10.8246 15.9798 11.34 15.765 11.7696C10.5245 21.3486 7.73237 28.694 7.73237 32.9466C7.73237 35.0943 8.20488 37.0703 9.06399 38.9173C9.27876 39.3469 9.10694 39.8624 8.67739 40.0771C8.54852 40.1201 8.41966 40.163 8.29079 40.163Z" fill="#31A05E"/>
</svg>
