<svg width="26" height="26" viewBox="0 0 26 26" fill="none" xmlns="http://www.w3.org/2000/svg">
<g clip-path="url(#clip0_635_47)">
<path fill-rule="evenodd" clip-rule="evenodd" d="M22.75 26H18.2813C17.1593 26 16.2501 25.0899 16.2501 23.9688V18.2813C16.2501 17.1593 17.1593 16.2501 18.2813 16.2501H18.9375C19.36 16.2501 19.7929 15.9121 19.9055 15.4868L20.3363 13.8642C20.4625 13.3913 20.1935 12.9997 19.7345 12.9997H18.2812C17.1593 12.9997 16.2501 12.0907 16.2501 10.9691V10.1566C16.2501 9.03424 17.1593 8.125 18.2812 8.125H19.5004C19.9483 8.125 20.3129 7.76161 20.3129 7.3125V5.6873C20.3129 5.239 19.9483 4.87459 19.5004 4.87459H17.0625C14.8186 4.87459 13.0005 6.69398 13.0005 8.93765V10.9691C13.0005 12.0906 12.0904 12.9997 10.9691 12.9997H10.5818C10.1228 12.9997 9.7501 13.3913 9.7501 13.8642V15.4868C9.7501 15.9121 10.0927 16.2501 10.5154 16.2501H10.9691C12.0904 16.2501 13.0005 17.1593 13.0005 18.2813V23.9688C13.0005 25.0899 12.0904 26 10.9691 26H10.5628C10.1137 26 9.7501 25.6358 9.7501 25.1875C9.7501 24.7384 10.1137 24.375 10.5628 24.375C11.0109 24.375 11.3753 24.0108 11.3753 23.5625V18.6876C11.3753 18.2384 11.0109 17.8751 10.5628 17.8751H10.0298C8.97767 17.8751 8.12495 17.0332 8.12495 15.9668V13.5333C8.12495 12.3574 9.05785 11.3745 10.2084 11.3745H10.5628C11.0109 11.3745 11.3753 11.0109 11.3753 10.5628V8.53135C11.3753 5.61443 13.7396 3.25036 16.6563 3.25036H19.9067C21.0283 3.25036 21.9371 4.15944 21.9371 5.281V7.7187C21.9371 8.8402 21.0283 9.7501 19.9067 9.7501H18.6876H17.8751V10.5628C17.8751 11.0109 18.2384 11.3745 18.6876 11.3745H20.2094C21.3607 11.3745 22.1085 12.3574 21.8883 13.5333L21.4317 15.9668C21.2321 17.0332 20.2221 17.8751 19.17 17.8751H18.6876C18.2384 17.8751 17.8751 18.2384 17.8751 18.6876V23.5625C17.8751 24.0108 18.2384 24.375 18.6876 24.375H22.75C23.6474 24.375 24.375 23.6474 24.375 22.75V3.25036C24.375 2.35214 23.6474 1.6252 22.75 1.6252H3.25036C2.35295 1.6252 1.6252 2.35219 1.6252 3.25036V22.75C1.6252 23.6474 2.353 24.375 3.25036 24.375H4.06286C4.51115 24.375 4.87551 24.7384 4.87551 25.1875C4.87551 25.6358 4.51115 26 4.06286 26H3.25036C1.4558 26 0 24.5448 0 22.75V3.25036C0 1.45478 1.4558 0 3.25036 0H22.75C24.5456 0 26 1.45478 26 3.25036V22.75C26 24.5448 24.5456 26 22.75 26ZM7.31245 24.375C7.76156 24.375 8.12495 24.7384 8.12495 25.1875C8.12495 25.6358 7.76156 26 7.31245 26C6.86415 26 6.49975 25.6358 6.49975 25.1875C6.49975 24.7384 6.86415 24.375 7.31245 24.375Z" fill="white"/>
</g>
<defs>
<clipPath id="clip0_635_47">
<rect width="26" height="26" fill="white"/>
</clipPath>
</defs>
</svg>
