<svg width="26" height="26" viewBox="0 0 26 26" fill="none" xmlns="http://www.w3.org/2000/svg">
<g clip-path="url(#clip0_635_43)">
<path fill-rule="evenodd" clip-rule="evenodd" d="M8.93181 16.2524C9.3795 16.2524 9.74147 16.6152 9.74147 17.0621C9.74147 17.509 9.37909 17.8713 8.93181 17.8713C8.48494 17.8713 8.12256 17.509 8.12256 17.0621C8.12256 16.6152 8.48534 16.2524 8.93181 16.2524ZM6.55891 13.934C6.04663 10.3797 8.51297 7.08378 12.0673 6.5715C15.6215 6.05922 18.9178 8.52556 19.4301 12.0798C19.9424 15.6341 17.4761 18.9304 13.9218 19.4427C13.882 19.4488 13.8438 19.4488 13.8044 19.4533L13.9246 19.4366C13.4802 19.5004 13.0691 19.1921 13.0045 18.748C12.9407 18.304 13.249 17.8917 13.6931 17.8271L13.6918 17.8242C13.6931 17.8242 13.6939 17.8242 13.6951 17.8242C16.3601 17.4403 18.2081 14.9691 17.8242 12.3041C17.4403 9.63869 14.9695 7.79066 12.3041 8.17456C9.64031 8.55847 7.79066 11.0297 8.17497 13.6947C8.17497 13.6959 8.17497 13.6967 8.17578 13.6967L8.17294 13.6979C8.23672 14.142 7.92838 14.5535 7.48434 14.6177C7.04031 14.6815 6.62797 14.3735 6.56338 13.9295L6.58125 14.0506C6.57556 14.0107 6.56459 13.9734 6.55891 13.934ZM19.4955 5.28328C19.4955 4.60972 20.0423 4.06291 20.7167 4.06291C21.3838 4.06291 21.9245 4.59834 21.9351 5.26459V5.30278C21.9245 5.96903 21.3838 6.50447 20.7167 6.50447C20.0423 6.50447 19.4955 5.95766 19.4955 5.28328ZM23.831 23.7738C22.4181 25.2013 20.4575 26 17.0674 26H8.93181C5.54166 26 3.5815 25.2013 2.16938 23.7738C0.775125 22.3657 0 20.4002 0 17.0682V8.93263C0 5.59934 0.775125 3.63512 2.16938 2.22706C3.5815 0.799094 5.54166 0 8.93181 0H17.067C20.4575 0 22.4177 0.799094 23.8306 2.22706C23.9212 2.31766 24.0041 2.41719 24.0878 2.5155C24.2592 2.66419 24.3701 2.88194 24.3701 3.12691C24.3701 3.57581 24.0065 3.93941 23.5576 3.93941C23.3122 3.93941 23.0945 3.82809 22.9458 3.65584L22.9353 3.66438C22.8516 3.56484 22.7732 3.46166 22.6805 3.36862C21.4447 2.119 19.6203 1.62866 16.653 1.62866H9.34253C6.37609 1.62866 4.55528 2.119 3.31947 3.36862C2.0995 4.60078 1.625 6.43012 1.625 9.34578V16.6571C1.625 19.5739 2.0995 21.3984 3.31947 22.6302C4.55528 23.8794 6.37609 24.375 9.34253 24.375H16.6538C19.6211 24.375 21.4455 23.8794 22.6813 22.6302C23.9013 21.3984 24.3709 19.5739 24.3709 16.6571V9.34619C24.3709 8.63606 24.3417 7.99216 24.2824 7.40431L24.286 7.4035C24.2422 6.95541 24.5667 6.55484 25.0157 6.50731C25.4654 6.461 25.8688 6.78762 25.9147 7.23653C25.9159 7.24831 25.9147 7.25928 25.9147 7.27106H25.9167C25.9659 7.78863 26 8.33097 26 8.93263V17.0678C26 20.4003 25.2241 22.3657 23.831 23.7738Z" fill="white"/>
</g>
<defs>
<clipPath id="clip0_635_43">
<rect width="26" height="26" fill="white"/>
</clipPath>
</defs>
</svg>
