<svg width="50" height="50" viewBox="0 0 50 50" fill="none" xmlns="http://www.w3.org/2000/svg">
<path d="M25.0001 10.4182C16.9476 10.4182 10.417 16.9486 10.417 25.0008C10.417 33.0554 16.9476 39.5833 25.0001 39.5833C33.0526 39.5833 39.5832 33.0554 39.5832 25.0008C39.5832 16.9486 33.0526 10.4182 25.0001 10.4182ZM25.0001 35.4172C19.2464 35.4172 14.5832 30.7543 14.5832 25.0008C14.5832 19.2472 19.2464 14.5843 25.0001 14.5843C30.7514 14.5843 35.417 19.2466 35.417 25.0008C35.417 30.7549 30.7514 35.4172 25.0001 35.4172Z" fill="#31A05E"/>
<path d="M27.0832 4.16834V2.08483C27.0832 0.934356 26.1506 0.00170898 25.0001 0.00170898C23.8496 0.00170898 22.917 0.934354 22.917 2.08483V4.16833C22.917 5.31881 23.8496 6.25146 25.0001 6.25146C26.1506 6.25146 27.0832 5.31881 27.0832 4.16834Z" fill="#31A05E"/>
<path d="M27.0832 47.9166V45.8331C27.0832 44.6826 26.1506 43.75 25.0001 43.75C23.8496 43.75 22.917 44.6826 22.917 45.8331V47.9166C22.917 49.0671 23.8496 49.9998 25.0001 49.9998C26.1506 49.9998 27.0832 49.0671 27.0832 47.9166Z" fill="#31A05E"/>
<path d="M4.16696 22.9177H2.08304C0.93261 22.9177 0 23.8503 0 25.0008C0 26.1512 0.93261 27.0838 2.08304 27.0838H4.16696C5.31739 27.0838 6.25 26.1512 6.25 25.0008C6.25 23.8503 5.31739 22.9177 4.16696 22.9177Z" fill="#31A05E"/>
<path d="M47.917 22.9177H45.833C44.6826 22.9177 43.75 23.8503 43.75 25.0008C43.75 26.1512 44.6826 27.0838 45.833 27.0838H47.917C49.0674 27.0838 50 26.1512 50 25.0008C50 23.8503 49.0674 22.9177 47.917 22.9177Z" fill="#31A05E"/>
<path d="M1.47435 4.42192L8.79224 11.7416C9.60624 12.5558 10.9262 12.556 11.7404 11.742C12.5546 10.928 12.5548 9.60815 11.7408 8.79396L4.42293 1.47429C3.60893 0.66009 2.28899 0.659903 1.47476 1.47387C0.660536 2.28784 0.660349 3.60772 1.47435 4.42192Z" fill="#31A05E"/>
<path d="M38.2592 41.2058L45.5803 48.5266C46.394 49.3404 47.7134 49.3404 48.5271 48.5266C49.3409 47.7129 49.3409 46.3936 48.5271 45.5799L41.206 38.2591C40.3922 37.4454 39.0729 37.4454 38.2592 38.2591C37.4454 39.0728 37.4454 40.3921 38.2592 41.2058Z" fill="#31A05E"/>
<path d="M4.42206 48.5241L11.742 41.2065C12.5562 40.3926 12.5564 39.0727 11.7424 38.2585C10.9284 37.4443 9.6085 37.4441 8.79427 38.2581L1.47431 45.5757C0.66008 46.3896 0.659894 47.7095 1.47389 48.5237C2.28789 49.3379 3.60783 49.3381 4.42206 48.5241Z" fill="#31A05E"/>
<path d="M41.2054 11.7415L48.5266 4.42063C49.3403 3.60691 49.3403 2.28762 48.5266 1.4739C47.7128 0.660189 46.3935 0.660189 45.5797 1.4739L38.2586 8.79475C37.4449 9.60846 37.4449 10.9278 38.2586 11.7415C39.0724 12.5552 40.3917 12.5552 41.2054 11.7415Z" fill="#31A05E"/>
</svg>
