<svg width="132" height="48" viewBox="0 0 127 45" fill="none" xmlns="http://www.w3.org/2000/svg">
<path d="M1.34079 39.6486C1.00572 39.6486 0.731563 39.5419 0.518333 39.3285C0.305102 39.1151 0.198486 38.8407 0.198486 38.5054V8.78103C0.198486 8.44567 0.305102 8.1713 0.518333 7.95789C0.731563 7.74449 1.00572 7.63778 1.34079 7.63778H7.37218C7.67679 7.63778 7.93572 7.74449 8.14895 7.95789C8.39264 8.1713 8.51449 8.44567 8.51449 8.78103V32.7434H22.3136C22.6486 32.7434 22.9228 32.8653 23.136 33.1092C23.3797 33.3226 23.5016 33.597 23.5016 33.9324V38.5054C23.5016 38.8407 23.3797 39.1151 23.136 39.3285C22.9228 39.5419 22.6486 39.6486 22.3136 39.6486H1.34079ZM35.3745 40.1059C33.6382 40.1059 32.0846 39.7096 30.7138 38.9169C29.3735 38.1243 28.3226 36.9658 27.5611 35.4415C26.7995 33.8866 26.4188 31.9965 26.4188 29.771V17.0124C26.4188 16.677 26.5254 16.4026 26.7386 16.1892C26.9518 15.9758 27.226 15.8691 27.5611 15.8691H33.2726C33.6077 15.8691 33.8818 15.9758 34.0951 16.1892C34.3083 16.4026 34.4149 16.677 34.4149 17.0124V29.4966C34.4149 32.4843 35.7552 33.9781 38.4358 33.9781C39.6848 33.9781 40.6748 33.597 41.4058 32.8349C42.1674 32.0422 42.5482 30.9295 42.5482 29.4966V17.0124C42.5482 16.677 42.6548 16.4026 42.868 16.1892C43.0812 15.9758 43.3554 15.8691 43.6905 15.8691H49.402C49.7371 15.8691 50.0112 15.9758 50.2245 16.1892C50.4377 16.4026 50.5443 16.677 50.5443 17.0124V38.5054C50.5443 38.8407 50.4377 39.1151 50.2245 39.3285C50.0112 39.5419 49.7371 39.6486 49.402 39.6486H44.1017C43.7971 39.6486 43.5229 39.5419 43.2792 39.3285C43.066 39.1151 42.9594 38.8407 42.9594 38.5054V36.7676C42.1674 37.8651 41.1317 38.7035 39.8523 39.2828C38.6034 39.8315 37.1108 40.1059 35.3745 40.1059ZM59.757 39.6486C59.4524 39.6486 59.1783 39.5419 58.9346 39.3285C58.7213 39.1151 58.6147 38.8407 58.6147 38.5054V21.8597H55.1421C54.807 21.8597 54.5329 21.753 54.3196 21.5396C54.1064 21.3262 53.9998 21.0518 53.9998 20.7165V17.0124C53.9998 16.677 54.1064 16.4026 54.3196 16.1892C54.5329 15.9758 54.807 15.8691 55.1421 15.8691H58.6147V14.4058C58.6147 12.3327 59.0107 10.6712 59.8027 9.42124C60.6252 8.14081 61.7827 7.22622 63.2753 6.67746C64.7679 6.09822 66.5499 5.80859 68.6213 5.80859H72.1853C72.4899 5.80859 72.7489 5.9153 72.9621 6.1287C73.2058 6.34211 73.3276 6.61649 73.3276 6.95184V10.6559C73.3276 10.9913 73.2058 11.2657 72.9621 11.4791C72.7489 11.6925 72.4899 11.7992 72.1853 11.7992H68.9869C67.9512 11.7992 67.2201 12.0431 66.7936 12.5309C66.3976 13.0186 66.1996 13.7198 66.1996 14.6344V15.8691H71.7284C72.033 15.8691 72.2919 15.9758 72.5052 16.1892C72.7489 16.4026 72.8707 16.677 72.8707 17.0124V20.7165C72.8707 21.0518 72.7489 21.3262 72.5052 21.5396C72.2919 21.753 72.033 21.8597 71.7284 21.8597H66.1996V38.5054C66.1996 38.8407 66.093 39.1151 65.8798 39.3285C65.6666 39.5419 65.3924 39.6486 65.0573 39.6486H59.757ZM84.8596 40.1059C83.1233 40.1059 81.5698 39.7096 80.199 38.9169C78.8587 38.1243 77.8078 36.9658 77.0462 35.4415C76.2847 33.8866 75.9039 31.9965 75.9039 29.771V17.0124C75.9039 16.677 76.0105 16.4026 76.2238 16.1892C76.437 15.9758 76.7112 15.8691 77.0462 15.8691H82.7578C83.0929 15.8691 83.367 15.9758 83.5802 16.1892C83.7935 16.4026 83.9001 16.677 83.9001 17.0124V29.4966C83.9001 32.4843 85.2404 33.9781 87.921 33.9781C89.1699 33.9781 90.1599 33.597 90.891 32.8349C91.6525 32.0422 92.0333 30.9295 92.0333 29.4966V17.0124C92.0333 16.677 92.1399 16.4026 92.3532 16.1892C92.5664 15.9758 92.8405 15.8691 93.1756 15.8691H98.8872C99.2222 15.8691 99.4964 15.9758 99.7096 16.1892C99.9228 16.4026 100.029 16.677 100.029 17.0124V38.5054C100.029 38.8407 99.9228 39.1151 99.7096 39.3285C99.4964 39.5419 99.2222 39.6486 98.8872 39.6486H93.5868C93.2822 39.6486 93.0081 39.5419 92.7644 39.3285C92.5512 39.1151 92.4445 38.8407 92.4445 38.5054V36.7676C91.6525 37.8651 90.6169 38.7035 89.3375 39.2828C88.0885 39.8315 86.5959 40.1059 84.8596 40.1059ZM115.182 40.1059C113.202 40.1059 111.512 39.8925 110.11 39.4657C108.74 39.0084 107.612 38.4596 106.729 37.8194C105.876 37.1792 105.236 36.5237 104.81 35.853C104.384 35.1518 104.155 34.5574 104.125 34.0696C104.094 33.7342 104.201 33.4598 104.444 33.2464C104.688 33.0025 104.947 32.8806 105.221 32.8806H110.43C110.522 32.8806 110.598 32.8958 110.659 32.9263C110.72 32.9568 110.811 33.0178 110.933 33.1092C111.329 33.3226 111.725 33.597 112.121 33.9324C112.517 34.2372 112.974 34.5116 113.492 34.7555C114.009 34.9994 114.634 35.1214 115.365 35.1214C116.218 35.1214 116.934 34.9537 117.512 34.6183C118.091 34.283 118.381 33.7799 118.381 33.1092C118.381 32.6215 118.244 32.2251 117.969 31.9203C117.695 31.5849 117.132 31.2648 116.279 30.9599C115.456 30.6551 114.207 30.3502 112.532 30.0454C110.948 29.6795 109.562 29.207 108.374 28.6277C107.186 28.018 106.272 27.2406 105.632 26.2955C104.993 25.3199 104.673 24.1462 104.673 22.7743C104.673 21.5549 105.069 20.3811 105.861 19.2531C106.653 18.1251 107.81 17.2105 109.334 16.5094C110.857 15.7777 112.73 15.4118 114.954 15.4118C116.72 15.4118 118.244 15.6252 119.523 16.0521C120.833 16.4484 121.929 16.9666 122.813 17.6069C123.727 18.2471 124.412 18.9025 124.869 19.5732C125.326 20.2439 125.569 20.8537 125.6 21.4024C125.63 21.7073 125.539 21.9817 125.326 22.2256C125.112 22.439 124.869 22.5457 124.595 22.5457H119.843C119.721 22.5457 119.599 22.5304 119.477 22.4999C119.355 22.439 119.249 22.378 119.157 22.317C118.792 22.1341 118.426 21.8902 118.061 21.5854C117.695 21.2805 117.269 21.0061 116.781 20.7622C116.294 20.5183 115.685 20.3964 114.954 20.3964C114.131 20.3964 113.492 20.5793 113.035 20.9451C112.578 21.311 112.349 21.7835 112.349 22.3628C112.349 22.7591 112.471 23.1249 112.715 23.4603C112.989 23.7956 113.522 24.1005 114.314 24.3749C115.136 24.6492 116.401 24.9541 118.106 25.2895C120.208 25.6248 121.884 26.1736 123.133 26.9357C124.381 27.6674 125.265 28.5363 125.783 29.5423C126.3 30.5179 126.559 31.5544 126.559 32.6519C126.559 34.1153 126.118 35.411 125.234 36.539C124.381 37.667 123.102 38.5511 121.396 39.1913C119.69 39.801 117.619 40.1059 115.182 40.1059Z" fill="#31A05E"/>
<path d="M31.5618 19.2572C29.9498 19.9669 27.9503 16.7425 26.5724 13.6081C25.1947 10.4737 24.9605 8.61639 26.5724 7.90666C28.1845 7.19693 30.6081 9.16249 31.9858 12.2969C33.3636 15.4312 33.1737 18.5474 31.5618 19.2572Z" fill="#31A05E"/>
<path d="M101.043 44.5167C99.7875 45.1902 97.996 42.7592 96.7095 40.3578C95.423 37.9565 95.4009 36.3049 96.6559 35.6314C97.9111 34.9579 99.6993 36.5479 100.986 38.9492C102.272 41.3505 102.298 43.8432 101.043 44.5167Z" fill="#31A05E"/>
<path d="M68.2357 10.1522C66.9726 11.3803 63.9743 9.0571 61.59 6.60111C59.2059 4.14512 58.5973 2.16801 59.8604 0.939847C61.1235 -0.288313 63.8216 1.02542 66.2057 3.48142C68.59 5.93741 69.4987 8.924 68.2357 10.1522Z" fill="#31A05E"/>
<path d="M73.4926 1.44798C74.4175 2.2072 72.9345 4.58825 71.328 6.54882C69.7212 8.5094 68.363 9.15899 67.438 8.39976C66.5131 7.64052 67.3021 5.58376 68.9087 3.62319C70.5154 1.66261 72.5676 0.688736 73.4926 1.44798Z" fill="#31A05E"/>
</svg>
