<svg width="38" height="30" viewBox="0 0 38 30" fill="none" xmlns="http://www.w3.org/2000/svg">
<path d="M33.3225 9.19019H12.0322C10.9632 9.19019 10.0967 10.0856 10.0967 11.1902C10.0967 12.2948 10.9632 13.1902 12.0322 13.1902H33.3225C34.3914 13.1902 35.258 12.2948 35.258 11.1902C35.258 10.0856 34.3914 9.19019 33.3225 9.19019Z" fill="white"/>
<path d="M35.2579 25.1902H10.0966C9.02768 25.1902 8.16113 26.0856 8.16113 27.1902C8.16113 28.2948 9.02768 29.1902 10.0966 29.1902H35.2579C36.3268 29.1902 37.1934 28.2948 37.1934 27.1902C37.1934 26.0856 36.3268 25.1902 35.2579 25.1902Z" fill="white"/>
<path d="M11.935 9.20903C12.998 9.32449 13.7693 10.3086 13.6575 11.4071L12.0519 27.1926C11.9402 28.2911 10.9878 29.088 9.92473 28.9726C8.86165 28.8571 8.09043 27.873 8.20217 26.7745L9.80776 10.989C9.9195 9.8905 10.8719 9.09357 11.935 9.20903Z" fill="white"/>
<path d="M35.3172 29.1093C34.2542 29.2248 33.3017 28.4278 33.19 27.3293L31.5723 11.4247C31.4606 10.3262 32.2318 9.34206 33.2949 9.2266L33.4446 9.21035C34.5076 9.09489 35.46 9.89182 35.5718 10.9903L37.1894 26.895C37.3012 27.9935 36.5299 28.9776 35.4669 29.0931L35.3172 29.1093Z" fill="white"/>
<path d="M28.8061 18C28.0044 18 27.3545 17.3284 27.3545 16.5V8.38385C27.3545 7.80697 27.6746 7.2812 28.1779 7.03157C29.1416 6.5536 30.2577 7.27933 30.2577 8.38385V16.5C30.2577 17.3284 29.6078 18 28.8061 18Z" fill="white"/>
<path d="M16.226 18C15.4243 18 14.7744 17.3284 14.7744 16.5V9.56836C14.7744 8.42031 15.9716 7.69783 16.9392 8.26189C17.3955 8.52782 17.6776 9.0271 17.6776 9.56836V16.5C17.6776 17.3284 17.0277 18 16.226 18Z" fill="white"/>
<path d="M28.8062 8C28.8062 9.12041 28.7703 9.81381 28.6582 10.2914C28.565 10.688 28.4506 10.8089 28.3118 10.903C28.0889 11.0543 27.6263 11.2334 26.6257 11.3494C25.6479 11.4628 24.3283 11.5 22.5159 11.5C20.5803 11.5 19.2 11.4627 18.1986 11.349C17.1663 11.2319 16.7457 11.0517 16.5723 10.9267C16.4961 10.8718 16.3982 10.7962 16.3224 10.3724C16.2312 9.86319 16.2256 9.15931 16.2256 8C16.2256 4.41015 19.0418 1.5 22.5159 1.5C25.99 1.5 28.8062 4.41015 28.8062 8Z" stroke="white" stroke-width="3"/>
<rect y="4" width="13" height="3" rx="1.5" fill="white"/>
</svg>
