<svg width="12" height="21" viewBox="0 0 12 21" fill="none" xmlns="http://www.w3.org/2000/svg">
<path d="M9.22222 17.8889C9.22222 18.5025 8.72476 19 8.11111 19C7.49746 19 7 18.5025 7 17.8889L7 2.67477C7 1.76903 8.1325 1.359 8.71234 2.05481L10.461 4.15326C10.7818 4.5382 10.3331 5.08224 9.89417 4.84055C9.59205 4.67421 9.22222 4.89277 9.22222 5.23765L9.22222 17.8889Z" fill="white"/>
<path d="M2.77778 3.11111C2.77778 2.49746 3.27524 2 3.88889 2C4.50254 2 5 2.49746 5 3.11111L5 18.3252C5 19.231 3.8675 19.641 3.28766 18.9452L1.53895 16.8467C1.21816 16.4618 1.66688 15.9178 2.10583 16.1594C2.40795 16.3258 2.77778 16.1072 2.77778 15.7624L2.77778 3.11111Z" fill="white"/>
</svg>
