<svg width="26" height="26" viewBox="0 0 26 26" fill="none" xmlns="http://www.w3.org/2000/svg">
<path fill-rule="evenodd" clip-rule="evenodd" d="M25.883 5.39906L22.4575 21.8952C22.0854 23.7238 20.8496 24.375 19.8165 24.375C19.2835 24.375 18.7302 24.2153 18.1703 23.8993L18.0773 23.8461L17.9904 23.7811L10.8672 18.4039L10.5995 21.5463C10.4597 22.2804 9.79184 22.8077 9.03175 22.7451C8.44756 22.6968 7.97387 22.3145 7.77603 21.8026L6.58734 18.2337C6.53291 18.124 6.5 18.0038 6.5 17.875C6.5 17.4261 6.86359 17.0625 7.3125 17.0625C7.66716 17.0625 7.96453 17.29 8.07584 17.6061C8.07666 17.6061 8.07787 17.6053 8.07869 17.604L9.0545 20.5351L9.1975 18.8577C9.1975 18.8557 9.1975 18.8557 9.1975 18.8549C9.28606 17.7803 10.2286 16.9808 11.3031 17.069C11.6577 17.0974 11.9799 17.2238 12.2517 17.4131L18.969 22.4839C19.2818 22.6602 19.5662 22.7496 19.8165 22.7496C20.3352 22.7496 20.7037 22.3637 20.865 21.5711L24.297 5.044C24.5773 3.89838 24.0699 3.25 23.387 3.25C23.2127 3.25 23.0275 3.29225 22.8394 3.37878L2.68775 11.3198C1.31178 11.884 1.31991 12.6677 2.43669 13.0167L5.76753 14.0794C5.76834 14.0794 5.77159 14.0774 5.77241 14.0782C6.00072 14.1493 6.25787 14.1245 6.47644 13.9876C6.4805 13.9856 6.48334 13.9864 6.487 13.9843L15.3993 8.36794C16.1545 7.90237 17.1466 8.12784 17.6231 8.88022C18.0282 9.51925 17.9282 10.3309 17.433 10.8587L12.7619 15.5293V15.5301L12.7493 15.5419L12.7485 15.5411C12.6027 15.6808 12.4057 15.7678 12.1883 15.7678C11.7394 15.7678 11.3758 15.4042 11.3758 14.9553C11.3758 14.7375 11.4623 14.5405 11.6025 14.3947L11.6017 14.3938L16.2305 9.76422L7.31859 15.3802C6.68241 15.7662 5.93897 15.8352 5.278 15.6256C5.27312 15.6236 5.26825 15.6256 5.26297 15.6236L1.95203 14.5677C0.207187 14.0221 0.0186869 12.7575 0.00203063 12.3833C-0.0243756 11.7528 0.207593 10.5804 2.07106 9.81581L2.08081 9.81175L2.09137 9.80769L22.2068 1.88175C22.5916 1.71153 22.9885 1.625 23.387 1.625C24.1828 1.625 24.9169 1.97844 25.4012 2.59634C25.9699 3.31906 26.1402 4.31356 25.883 5.39906ZM12.1875 20.3125C12.6364 20.3125 13 20.6761 13 21.125C13 21.5739 12.6364 21.9375 12.1875 21.9375C11.7386 21.9375 11.375 21.5739 11.375 21.125C11.375 20.6761 11.7386 20.3125 12.1875 20.3125Z" fill="white"/>
</svg>
