<svg width="16" height="50" viewBox="0 0 16 50" fill="none" xmlns="http://www.w3.org/2000/svg">
<g clip-path="url(#clip0_569_36)">
<path d="M15 42.1875C15 45.9277 11.8885 49 8 49C4.11152 49 1 45.9277 1 42.1875C1 38.4473 4.11152 35.375 8 35.375C11.8885 35.375 15 38.4473 15 42.1875Z" stroke="#31A05E" stroke-width="2"/>
<path d="M11.8002 4.8V35.9692C11.5846 35.8551 11.3473 35.7847 11.102 35.7636L8.9978 35.5823C8.31478 35.5234 7.62724 35.5442 6.94901 35.6441L4.65078 35.9829C4.49509 36.0059 4.34365 36.0491 4.2002 36.1112V4.8C4.2002 2.70132 5.90151 1 8.0002 1C10.0989 1 11.8002 2.70132 11.8002 4.8Z" stroke="#31A05E" stroke-width="2"/>
<path d="M9.6375 28.125H9.5625C8.69956 28.125 8 28.8246 8 29.6875C8 30.5504 8.69956 31.25 9.5625 31.25H9.6375C10.5004 31.25 11.2 30.5504 11.2 29.6875C11.2 28.8246 10.5004 28.125 9.6375 28.125Z" fill="#31A05E"/>
<path d="M8.0748 39.0625H7.9248C6.19891 39.0625 4.7998 40.4616 4.7998 42.1875C4.7998 43.9134 6.19891 45.3125 7.9248 45.3125H8.0748C9.80069 45.3125 11.1998 43.9134 11.1998 42.1875C11.1998 40.4616 9.80069 39.0625 8.0748 39.0625Z" fill="#31A05E"/>
<path d="M9.6375 18.75H9.5625C8.69956 18.75 8 19.4496 8 20.3125C8 21.1754 8.69956 21.875 9.5625 21.875H9.6375C10.5004 21.875 11.2 21.1754 11.2 20.3125C11.2 19.4496 10.5004 18.75 9.6375 18.75Z" fill="#31A05E"/>
<path d="M9.6375 9.375H9.5625C8.69956 9.375 8 10.0746 8 10.9375C8 11.8004 8.69956 12.5 9.5625 12.5H9.6375C10.5004 12.5 11.2 11.8004 11.2 10.9375C11.2 10.0746 10.5004 9.375 9.6375 9.375Z" fill="#31A05E"/>
</g>
<defs>
<clipPath id="clip0_569_36">
<rect width="16" height="50" fill="white"/>
</clipPath>
</defs>
</svg>
